<?xml version="1.0" encoding="utf-8"?>
<!-- Generator: Adobe Illustrator 16.0.0, SVG Export Plug-In . SVG Version: 6.00 Build 0)  -->
<!DOCTYPE svg PUBLIC "-//W3C//DTD SVG 1.1//EN" "http://www.w3.org/Graphics/SVG/1.1/DTD/svg11.dtd">
<svg version="1.1" id="Layer_1" xmlns="http://www.w3.org/2000/svg" xmlns:xlink="http://www.w3.org/1999/xlink" x="0px" y="0px"
	 width="960px" height="800px" viewBox="0 0 960 800" enable-background="new 0 0 960 800" xml:space="preserve">
<g>
	<defs>
		<rect id="SVGID_1_" width="960" height="800"/>
	</defs>
	<clipPath id="SVGID_2_">
		<use xlink:href="#SVGID_1_"  overflow="visible"/>
	</clipPath>
	<g clip-path="url(#SVGID_2_)">
		<defs>
			<path id="SVGID_3_" d="M446.736,248.033c37.773,0.433,76.688,20.866,99.656,54.227c38.008-19.775,76.017-39.544,114.014-59.31
				c-46.08-67.709-124.748-109.225-201.1-110.007C455.116,171.304,450.921,209.669,446.736,248.033"/>
		</defs>
		<clipPath id="SVGID_4_">
			<use xlink:href="#SVGID_3_"  overflow="visible"/>
		</clipPath>
		
			<linearGradient id="SVGID_5_" gradientUnits="userSpaceOnUse" x1="4.882813e-004" y1="800.0273" x2="1.0005" y2="800.0273" gradientTransform="matrix(-331.6363 432.1668 432.1668 331.6363 -345143.0625 -265163.5313)">
			<stop  offset="0" style="stop-color:#93FFFF"/>
			<stop  offset="1" style="stop-color:#005EA1"/>
		</linearGradient>
		<polygon clip-path="url(#SVGID_4_)" fill="url(#SVGID_5_)" points="742.182,195.696 581.215,405.456 364.962,239.507 
			525.928,29.747 		"/>
	</g>
	<g clip-path="url(#SVGID_2_)">
		<defs>
			<path id="SVGID_6_" d="M554.021,314.803c19.966,37.456,20.869,86.88,0.194,127.472c39.868,28.371,79.722,56.708,119.563,85.046
				c42.821-82.298,41.861-182.726,1.907-258.88C635.143,283.889,594.588,299.345,554.021,314.803"/>
		</defs>
		<clipPath id="SVGID_7_">
			<use xlink:href="#SVGID_6_"  overflow="visible"/>
		</clipPath>
		
			<linearGradient id="SVGID_8_" gradientUnits="userSpaceOnUse" x1="-4.882813e-004" y1="800.001" x2="0.9995" y2="800.001" gradientTransform="matrix(-1220.4921 45.5294 45.5294 1220.4921 -35548.5195 -976003.625)">
			<stop  offset="0" style="stop-color:#FF0698"/>
			<stop  offset="0.543" style="stop-color:#00A3CE"/>
			<stop  offset="1" style="stop-color:#FFD912"/>
		</linearGradient>
		<polygon clip-path="url(#SVGID_7_)" fill="url(#SVGID_8_)" points="726.244,526.961 554.247,533.378 544.377,268.801 
			716.374,262.385 		"/>
	</g>
	<g clip-path="url(#SVGID_2_)">
		<defs>
			<path id="SVGID_9_" d="M447.107,471.842c-5.213,35.566-10.422,71.132-15.626,106.689c67.512-0.614,131.167-35.535,165.739-86.662
				c-23.208-20.932-46.419-41.863-69.646-62.807C510.894,454.212,479.939,471.472,447.107,471.842"/>
		</defs>
		<clipPath id="SVGID_10_">
			<use xlink:href="#SVGID_9_"  overflow="visible"/>
		</clipPath>
		
			<linearGradient id="SVGID_11_" gradientUnits="userSpaceOnUse" x1="0.0015" y1="800" x2="1.0015" y2="800" gradientTransform="matrix(-55.1523 726.5778 726.5778 55.1523 -580707.6875 -44140.8398)">
			<stop  offset="0" style="stop-color:#FF0698"/>
			<stop  offset="0.543" style="stop-color:#00A3CE"/>
			<stop  offset="1" style="stop-color:#FFD912"/>
		</linearGradient>
		<polygon clip-path="url(#SVGID_10_)" fill="url(#SVGID_11_)" points="608.501,429.918 596.271,591.04 420.2,577.675 
			432.431,416.554 		"/>
	</g>
	<g clip-path="url(#SVGID_2_)">
		<defs>
			<path id="SVGID_12_" d="M302.431,253.197c48.735,35.957,97.447,71.902,146.129,107.818c2.393-0.615,5.322-0.998,8.719-0.965
				c-15.534-70.08-31.084-140.188-46.623-210.307C361.565,173.009,323.396,210.788,302.431,253.197"/>
		</defs>
		<clipPath id="SVGID_13_">
			<use xlink:href="#SVGID_12_"  overflow="visible"/>
		</clipPath>
		
			<linearGradient id="SVGID_14_" gradientUnits="userSpaceOnUse" x1="4.882813e-004" y1="800.001" x2="1.0005" y2="800.001" gradientTransform="matrix(263.6122 597.4156 597.4156 -263.6122 -477595.9688 211049.25)">
			<stop  offset="0" style="stop-color:#FF0698"/>
			<stop  offset="0.543" style="stop-color:#00A3CE"/>
			<stop  offset="1" style="stop-color:#FFD912"/>
		</linearGradient>
		<polygon clip-path="url(#SVGID_13_)" fill="url(#SVGID_14_)" points="432.043,92.552 535.312,326.584 327.667,418.208 
			224.399,184.176 		"/>
	</g>
	<g clip-path="url(#SVGID_2_)">
		<defs>
			<path id="SVGID_15_" d="M356.876,470.371c28.927-36.14,57.856-72.273,86.781-108.398c-53.631-9.627-107.288-19.257-160.968-28.89
				C281.813,391.468,313.126,445.313,356.876,470.371 M443.657,361.973c27.384,4.916,54.76,9.83,82.131,14.745
				c-2.616-28.075-19.552-53.068-41.766-65.155C470.566,328.366,457.113,345.167,443.657,361.973"/>
		</defs>
		<clipPath id="SVGID_16_">
			<use xlink:href="#SVGID_15_"  overflow="visible"/>
		</clipPath>
		
			<linearGradient id="SVGID_17_" gradientUnits="userSpaceOnUse" x1="4.882813e-004" y1="799.918" x2="1.0005" y2="799.918" gradientTransform="matrix(276.7198 -207.0376 -207.0376 -276.7198 165832.6094 221881.3281)">
			<stop  offset="0" style="stop-color:#FF1F1E"/>
			<stop  offset="1" style="stop-color:#FFD912"/>
		</linearGradient>
		<polygon clip-path="url(#SVGID_16_)" fill="url(#SVGID_17_)" points="205.637,368.557 438.229,194.535 601.964,413.377 
			369.372,587.399 		"/>
	</g>
	<g clip-path="url(#SVGID_2_)">
		<defs>
			<path id="SVGID_18_" d="M441.579,364.314c-12.761,40.741-25.536,81.473-38.299,122.211c29.945,4.393,60.527-2.388,84.422-17.713
				c-15.429-35.179-30.851-70.362-46.278-105.543C441.502,363.761,441.579,364.314,441.579,364.314"/>
		</defs>
		<clipPath id="SVGID_19_">
			<use xlink:href="#SVGID_18_"  overflow="visible"/>
		</clipPath>
		
			<linearGradient id="SVGID_20_" gradientUnits="userSpaceOnUse" x1="0.002" y1="799.9766" x2="1.002" y2="799.9766" gradientTransform="matrix(-212.1069 -69.8427 -69.8427 212.1069 56388.6563 -169230.3906)">
			<stop  offset="0" style="stop-color:#FF1F1E"/>
			<stop  offset="1" style="stop-color:#FFD912"/>
		</linearGradient>
		<polygon clip-path="url(#SVGID_19_)" fill="url(#SVGID_20_)" points="479.443,515.997 365.359,478.432 411.538,338.191 
			525.622,375.756 		"/>
	</g>
	<g clip-path="url(#SVGID_2_)">
		<defs>
			<path id="SVGID_21_" d="M394.832,375.916c14.283-5.598,28.563-11.197,42.843-16.796c-12.597-10.601-25.198-21.205-37.797-31.808
				C389.414,342.039,387.826,361.548,394.832,375.916 M437.675,359.12c28.779,24.218,57.55,48.425,86.315,72.628
				c20.168-33.203,20.623-76.143,3.261-107.759C497.396,335.699,467.538,347.41,437.675,359.12"/>
		</defs>
		<clipPath id="SVGID_22_">
			<use xlink:href="#SVGID_21_"  overflow="visible"/>
		</clipPath>
		
			<linearGradient id="SVGID_23_" gradientUnits="userSpaceOnUse" x1="9.765625e-004" y1="800.04" x2="1.001" y2="800.04" gradientTransform="matrix(-512.0691 -202.6641 -202.6641 512.0691 162747.2813 -409242.0313)">
			<stop  offset="0" style="stop-color:#FF0698"/>
			<stop  offset="0.543" style="stop-color:#00A3CE"/>
			<stop  offset="1" style="stop-color:#FFD912"/>
		</linearGradient>
		<polygon clip-path="url(#SVGID_22_)" fill="url(#SVGID_23_)" points="523.38,485.396 350.953,417.154 409.059,270.34 
			581.485,338.583 		"/>
	</g>
	<g clip-path="url(#SVGID_2_)">
		<defs>
			<path id="SVGID_24_" d="M431.426,363.801c0.784,0.838,2.025,1.174,3.089,0.895c-0.023-1.342-0.045-2.682-0.067-4.024
				C433.441,361.714,432.433,362.758,431.426,363.801 M433.017,273.453c0.477,29.077,0.952,58.15,1.431,87.218
				c21.935-22.713,43.854-45.428,65.785-68.132c-16.799-12.805-37.546-19.601-57.689-19.602
				C439.346,272.936,436.167,273.108,433.017,273.453"/>
		</defs>
		<clipPath id="SVGID_25_">
			<use xlink:href="#SVGID_24_"  overflow="visible"/>
		</clipPath>
		
			<linearGradient id="SVGID_26_" gradientUnits="userSpaceOnUse" x1="-0.0024" y1="800.0566" x2="0.9976" y2="800.0566" gradientTransform="matrix(-143.2602 258.8527 258.8527 143.2602 -206573.0313 -114402.4063)">
			<stop  offset="0" style="stop-color:#FF218B"/>
			<stop  offset="1" style="stop-color:#000049"/>
		</linearGradient>
		<polygon clip-path="url(#SVGID_25_)" fill="url(#SVGID_26_)" points="539.227,294.517 484.1,394.125 392.432,343.393 
			447.56,243.784 		"/>
	</g>
	<g clip-path="url(#SVGID_2_)">
		<defs>
			<path id="SVGID_27_" d="M329.016,513.469c25.776,14.023,54.524,21.638,82.888,22.31c3.938-30.614,7.884-61.213,11.821-91.828
				c-13.496-0.293-27.168-3.916-39.401-10.619C365.891,460.046,347.454,486.748,329.016,513.469"/>
		</defs>
		<clipPath id="SVGID_28_">
			<use xlink:href="#SVGID_27_"  overflow="visible"/>
		</clipPath>
		
			<linearGradient id="SVGID_29_" gradientUnits="userSpaceOnUse" x1="-4.882813e-004" y1="800.0078" x2="0.9995" y2="800.0078" gradientTransform="matrix(111.5422 -489.7628 -489.7628 -111.5422 392148.2188 89902.7578)">
			<stop  offset="0" style="stop-color:#FF218B"/>
			<stop  offset="1" style="stop-color:#000049"/>
		</linearGradient>
		<polygon clip-path="url(#SVGID_28_)" fill="url(#SVGID_29_)" points="306.834,530.727 333.686,412.825 445.906,438.383 
			419.055,556.284 		"/>
	</g>
	<g clip-path="url(#SVGID_2_)">
		<defs>
			<path id="SVGID_30_" d="M470.966,393.145c34.396,55.85,68.763,111.67,103.128,167.455
				c42.648-42.669,74.314-93.711,92.803-147.239c-50.846-30.658-101.72-61.337-152.606-92.033
				C505.816,347.35,491.032,372.234,470.966,393.145"/>
		</defs>
		<clipPath id="SVGID_31_">
			<use xlink:href="#SVGID_30_"  overflow="visible"/>
		</clipPath>
		
			<linearGradient id="SVGID_32_" gradientUnits="userSpaceOnUse" x1="0.0015" y1="800.1064" x2="1.0012" y2="800.1064" gradientTransform="matrix(-113.0585 129.5659 129.5659 113.0585 -103041.3438 -90082.2969)">
			<stop  offset="0" style="stop-color:#FF1F1E"/>
			<stop  offset="1" style="stop-color:#FFD912"/>
		</linearGradient>
		<polygon clip-path="url(#SVGID_31_)" fill="url(#SVGID_32_)" points="785.431,424.759 582.2,657.663 352.432,457.168 
			555.662,224.264 		"/>
	</g>
	<g clip-path="url(#SVGID_2_)">
		<defs>
			<path id="SVGID_33_" d="M229.925,372.469c7.871,45.635,31.27,87.317,64.039,116.379c24.589-22.436,49.162-44.861,73.742-67.296
				c-15.52-13.913-26.521-33.876-30.047-55.704C301.759,368.057,265.843,370.266,229.925,372.469"/>
		</defs>
		<clipPath id="SVGID_34_">
			<use xlink:href="#SVGID_33_"  overflow="visible"/>
		</clipPath>
		
			<linearGradient id="SVGID_35_" gradientUnits="userSpaceOnUse" x1="0.083" y1="800.1426" x2="1.083" y2="800.1426" gradientTransform="matrix(487.9448 -236.426 -236.426 -487.9448 189325.5625 390924.8438)">
			<stop  offset="0" style="stop-color:#FF0698"/>
			<stop  offset="0.543" style="stop-color:#00A3CE"/>
			<stop  offset="1" style="stop-color:#FFD912"/>
		</linearGradient>
		<polygon clip-path="url(#SVGID_34_)" fill="url(#SVGID_35_)" points="181.659,389.234 341.509,311.782 415.972,465.462 
			256.122,542.914 		"/>
	</g>
	<g clip-path="url(#SVGID_2_)">
		<defs>
			<path id="SVGID_36_" d="M543.996,266.09c22.832,20.036,39.876,48.661,46.765,80.704c51.525,0.337,103.014,0.683,154.491,1.024
				c-13.17-66.193-47.529-125.5-94.088-166.934C615.455,209.284,579.729,237.676,543.996,266.09"/>
		</defs>
		<clipPath id="SVGID_37_">
			<use xlink:href="#SVGID_36_"  overflow="visible"/>
		</clipPath>
		
			<linearGradient id="SVGID_38_" gradientUnits="userSpaceOnUse" x1="9.765625e-004" y1="799.9883" x2="1.001" y2="799.9883" gradientTransform="matrix(-715.6096 131.4974 131.4974 715.6096 -104398.9141 -572243.125)">
			<stop  offset="0" style="stop-color:#FF218B"/>
			<stop  offset="1" style="stop-color:#000049"/>
		</linearGradient>
		<polygon clip-path="url(#SVGID_37_)" fill="url(#SVGID_38_)" points="774.925,342.365 550.569,383.592 514.323,186.337 
			738.679,145.111 		"/>
	</g>
	<g clip-path="url(#SVGID_2_)">
		<defs>
			<path id="SVGID_39_" d="M236.542,348.225c33.316,1.916,66.623,3.842,99.926,5.758c-0.764-18.464,3.643-37.684,12.871-54.845
				c-29.471-20.129-58.955-40.254-88.446-60.393C242.943,273.07,234.644,311.424,236.542,348.225"/>
		</defs>
		<clipPath id="SVGID_40_">
			<use xlink:href="#SVGID_39_"  overflow="visible"/>
		</clipPath>
		
			<linearGradient id="SVGID_41_" gradientUnits="userSpaceOnUse" x1="-9.765625e-004" y1="799.9648" x2="0.999" y2="799.9648" gradientTransform="matrix(-33.0445 106.7908 106.7908 33.0445 -85123.3203 -26181.5996)">
			<stop  offset="0" style="stop-color:#93FFFF"/>
			<stop  offset="1" style="stop-color:#005EA1"/>
		</linearGradient>
		<polygon clip-path="url(#SVGID_40_)" fill="url(#SVGID_41_)" points="381.882,248.814 339.317,386.372 202.102,343.913 
			244.666,206.355 		"/>
	</g>
	<g clip-path="url(#SVGID_2_)">
		<defs>
			<path id="SVGID_42_" d="M489.581,239.124c14.747,3.185,29.278,8.782,42.815,16.622c29.095-34.87,58.199-69.731,87.285-104.599
				c-26.467-15.466-54.926-26.534-83.841-32.757C520.436,158.64,505.009,198.874,489.581,239.124"/>
		</defs>
		<clipPath id="SVGID_43_">
			<use xlink:href="#SVGID_42_"  overflow="visible"/>
		</clipPath>
		
			<linearGradient id="SVGID_44_" gradientUnits="userSpaceOnUse" x1="0.0015" y1="799.9971" x2="1.0015" y2="799.9971" gradientTransform="matrix(-216.1515 623.7006 623.7006 216.1515 -498364.6875 -172847.1875)">
			<stop  offset="0" style="stop-color:#FF0698"/>
			<stop  offset="0.543" style="stop-color:#00A3CE"/>
			<stop  offset="1" style="stop-color:#FFD912"/>
		</linearGradient>
		<polygon clip-path="url(#SVGID_43_)" fill="url(#SVGID_44_)" points="662.18,133.118 605.731,296 447.083,241.018 503.531,78.137 
					"/>
	</g>
	<g clip-path="url(#SVGID_2_)">
		<defs>
			<path id="SVGID_45_" d="M294.861,189.247c30.66,28.073,61.308,56.141,91.944,84.186c16.045-21.829,45.483-35.695,75.751-33.666
				c10.158-47.02,20.324-94.033,30.48-141.047c-4.846-0.312-9.677-0.465-14.5-0.465C404.42,98.257,333.905,134.526,294.861,189.247"
				/>
		</defs>
		<clipPath id="SVGID_46_">
			<use xlink:href="#SVGID_45_"  overflow="visible"/>
		</clipPath>
		
			<linearGradient id="SVGID_47_" gradientUnits="userSpaceOnUse" x1="0" y1="799.9785" x2="1" y2="799.9785" gradientTransform="matrix(-254.1203 85.9333 85.9333 254.1203 -68243.8906 -203140.9844)">
			<stop  offset="0" style="stop-color:#FF1F1E"/>
			<stop  offset="1" style="stop-color:#FFD912"/>
		</linearGradient>
		<polygon clip-path="url(#SVGID_46_)" fill="url(#SVGID_47_)" points="546.196,255.457 315.197,333.571 241.702,116.231 
			472.701,38.117 		"/>
	</g>
	<g clip-path="url(#SVGID_2_)">
		<defs>
			<rect id="SVGID_48_" width="960" height="800"/>
		</defs>
		<clipPath id="SVGID_49_">
			<use xlink:href="#SVGID_48_"  overflow="visible"/>
		</clipPath>
		<g clip-path="url(#SVGID_49_)">
			<g>
				<defs>
					<rect id="SVGID_50_" x="228.988" y="76.458" width="464.847" height="474.484"/>
				</defs>
				<clipPath id="SVGID_51_">
					<use xlink:href="#SVGID_50_"  overflow="visible"/>
				</clipPath>
				<g clip-path="url(#SVGID_51_)">
					<defs>
						<path id="SVGID_52_" d="M269.734,294.73c-10.571,55.592,7.581,114.308,44.502,151.989
							c20.787-16.693,41.581-33.381,62.369-50.085c-18.24-18.666-27.271-47.657-22.197-75.179
							C326.181,312.547,297.953,303.637,269.734,294.73"/>
					</defs>
					<clipPath id="SVGID_53_">
						<use xlink:href="#SVGID_52_"  overflow="visible"/>
					</clipPath>
					
						<linearGradient id="SVGID_54_" gradientUnits="userSpaceOnUse" x1="9.765625e-004" y1="799.9922" x2="1.001" y2="799.9922" gradientTransform="matrix(373.1568 -49.1251 -49.1251 -373.1568 39556.8281 298901.1875)">
						<stop  offset="0" style="stop-color:#93FFFF"/>
						<stop  offset="1" style="stop-color:#005EA1"/>
					</linearGradient>
					<polygon clip-path="url(#SVGID_53_)" fill="url(#SVGID_54_)" points="239.495,297.319 374.604,279.532 396.273,444.13 
						261.164,461.917 					"/>
				</g>
				<g clip-path="url(#SVGID_51_)">
					<defs>
						<path id="SVGID_55_" d="M402.132,149.267c-61.128,19.284-109.725,68.817-127.408,125.547
							c27.354,12.26,54.72,24.515,82.088,36.784c8.543-28.053,32.247-52.643,62.181-62.372
							C413.375,215.891,407.749,182.576,402.132,149.267"/>
					</defs>
					<clipPath id="SVGID_56_">
						<use xlink:href="#SVGID_55_"  overflow="visible"/>
					</clipPath>
					
						<linearGradient id="SVGID_57_" gradientUnits="userSpaceOnUse" x1="0" y1="799.9922" x2="1" y2="799.9922" gradientTransform="matrix(618.5345 574.0135 574.0135 -618.5345 -458973.7813 494945.5938)">
						<stop  offset="0" style="stop-color:#FF0698"/>
						<stop  offset="0.543" style="stop-color:#00A3CE"/>
						<stop  offset="1" style="stop-color:#FFD912"/>
					</linearGradient>
					<polygon clip-path="url(#SVGID_56_)" fill="url(#SVGID_57_)" points="341.48,77.333 499.933,224.381 352.237,383.531 
						193.785,236.484 					"/>
				</g>
				<g clip-path="url(#SVGID_51_)">
					<defs>
						<path id="SVGID_58_" d="M620.608,204.898c-52.863-51.911-129.356-74.204-195.859-61.357
							c1.765,34.246,3.533,68.503,5.303,102.776c32.457-6.57,69.881,4.058,95.645,29.244
							C557.338,252.011,588.976,228.456,620.608,204.898"/>
					</defs>
					<clipPath id="SVGID_59_">
						<use xlink:href="#SVGID_58_"  overflow="visible"/>
					</clipPath>
					
						<linearGradient id="SVGID_60_" gradientUnits="userSpaceOnUse" x1="0" y1="799.9727" x2="1" y2="799.9727" gradientTransform="matrix(606.5974 -521.0347 -521.0347 -606.5974 416888.5 485848.9375)">
						<stop  offset="0" style="stop-color:#FF0698"/>
						<stop  offset="0.543" style="stop-color:#00A3CE"/>
						<stop  offset="1" style="stop-color:#FFD912"/>
					</linearGradient>
					<polygon clip-path="url(#SVGID_59_)" fill="url(#SVGID_60_)" points="353.145,192.198 537.455,33.886 692.212,214.057 
						507.902,372.369 					"/>
				</g>
				<g clip-path="url(#SVGID_51_)">
					<defs>
						<path id="SVGID_61_" d="M682.844,464.337c25.115-85.28,5.831-177.641-44.009-239.345
							c-34.76,20.108-69.518,40.215-104.271,60.318c24.213,29.911,33.389,74.877,20.774,116.168
							C597.821,422.426,640.32,443.369,682.844,464.337"/>
					</defs>
					<clipPath id="SVGID_62_">
						<use xlink:href="#SVGID_61_"  overflow="visible"/>
					</clipPath>
					
						<linearGradient id="SVGID_63_" gradientUnits="userSpaceOnUse" x1="4.882813e-004" y1="800" x2="1.0005" y2="800" gradientTransform="matrix(-620.5744 20.9228 20.9228 620.5744 -15616.7402 -496131.5313)">
						<stop  offset="0" style="stop-color:#FF0698"/>
						<stop  offset="0.543" style="stop-color:#00A3CE"/>
						<stop  offset="1" style="stop-color:#FFD912"/>
					</linearGradient>
					<polygon clip-path="url(#SVGID_62_)" fill="url(#SVGID_63_)" points="716.02,464.065 534.761,470.177 526.504,225.264 
						707.762,219.153 					"/>
				</g>
				<g clip-path="url(#SVGID_51_)">
					<defs>
						<path id="SVGID_64_" d="M346.212,462.277c35.351,12.623,72.455,12.813,103.417,2.336
							c-6.24-41.375-12.48-82.735-18.718-124.072c-1.47-0.869-3.086-2.103-4.73-3.785
							C399.532,378.582,372.879,420.433,346.212,462.277"/>
					</defs>
					<clipPath id="SVGID_65_">
						<use xlink:href="#SVGID_64_"  overflow="visible"/>
					</clipPath>
					
						<linearGradient id="SVGID_66_" gradientUnits="userSpaceOnUse" x1="9.765625e-004" y1="800.0469" x2="1.001" y2="800.0469" gradientTransform="matrix(163.0643 -420.6511 -420.6511 -163.0643 336907.125 130944.9375)">
						<stop  offset="0" style="stop-color:#FF0698"/>
						<stop  offset="0.543" style="stop-color:#00A3CE"/>
						<stop  offset="1" style="stop-color:#FFD912"/>
					</linearGradient>
					<polygon clip-path="url(#SVGID_65_)" fill="url(#SVGID_66_)" points="299.593,457.019 359.722,301.904 496.248,354.828 
						436.119,509.942 					"/>
				</g>
				<g clip-path="url(#SVGID_51_)">
					<defs>
						<path id="SVGID_67_" d="M498.301,435.226c28.954-28.095,39.961-69.7,30.834-103.313
							c-46.581,5.162-93.146,10.314-139.709,15.469c-4.947-16.762-1.01-37.244,11.428-52.234
							C433.309,341.813,465.797,388.507,498.301,435.226"/>
					</defs>
					<clipPath id="SVGID_68_">
						<use xlink:href="#SVGID_67_"  overflow="visible"/>
					</clipPath>
					
						<linearGradient id="SVGID_69_" gradientUnits="userSpaceOnUse" x1="-9.765625e-004" y1="799.9961" x2="0.999" y2="799.9961" gradientTransform="matrix(-236.3428 -34.0369 -34.0369 236.3428 27851.2695 -188684.9844)">
						<stop  offset="0" style="stop-color:#FF1F1E"/>
						<stop  offset="1" style="stop-color:#FFD912"/>
					</linearGradient>
					<polygon clip-path="url(#SVGID_68_)" fill="url(#SVGID_69_)" points="535.138,456.923 364.715,432.38 387.604,273.45 
						558.025,297.993 					"/>
				</g>
				<g clip-path="url(#SVGID_51_)">
					<defs>
						<path id="SVGID_70_" d="M514.35,301.348c-12.485-16.775-30.731-28.4-49.897-32.588c-9.649,24.72-19.302,49.446-28.955,74.172
							c0.205-0.275,0.439-0.588,0.439-0.588C462.072,328.675,488.214,315.017,514.35,301.348"/>
					</defs>
					<clipPath id="SVGID_71_">
						<use xlink:href="#SVGID_70_"  overflow="visible"/>
					</clipPath>
					
						<linearGradient id="SVGID_72_" gradientUnits="userSpaceOnUse" x1="0.0015" y1="800.0488" x2="1.0015" y2="800.0488" gradientTransform="matrix(69.5029 137.7362 137.7362 -69.5029 -109744.0781 55864.6328)">
						<stop  offset="0" style="stop-color:#FF1F1E"/>
						<stop  offset="1" style="stop-color:#FFD912"/>
					</linearGradient>
					<polygon clip-path="url(#SVGID_71_)" fill="url(#SVGID_72_)" points="498.347,237.045 544.182,327.878 451.5,374.646 
						405.666,283.813 					"/>
				</g>
				<g clip-path="url(#SVGID_51_)">
					<defs>
						<path id="SVGID_73_" d="M428.616,269.135c-26.072,6.369-47.275,27.128-54.235,51.061
							c30.015,13.097,60.033,26.207,90.061,39.32c-3.596,10.447-13.907,19.195-26.211,21.28
							C435.027,343.561,431.82,306.341,428.616,269.135"/>
					</defs>
					<clipPath id="SVGID_74_">
						<use xlink:href="#SVGID_73_"  overflow="visible"/>
					</clipPath>
					
						<linearGradient id="SVGID_75_" gradientUnits="userSpaceOnUse" x1="0.0024" y1="800.0127" x2="1.0024" y2="800.0127" gradientTransform="matrix(151.1718 349.1833 349.1833 -151.1718 -278972.125 121170.8125)">
						<stop  offset="0" style="stop-color:#FF0698"/>
						<stop  offset="0.543" style="stop-color:#00A3CE"/>
						<stop  offset="1" style="stop-color:#FFD912"/>
					</linearGradient>
					<polygon clip-path="url(#SVGID_74_)" fill="url(#SVGID_75_)" points="450.226,236.3 505.152,363.171 388.596,413.632 
						333.67,286.76 					"/>
				</g>
				<g clip-path="url(#SVGID_51_)">
					<defs>
						<path id="SVGID_76_" d="M372.211,348.756c2.262,16.76,11.056,32.162,23.516,42.162c14.618-15.105,29.234-30.21,43.847-45.309
							c0.655,0.384,1.095,1.154,1.069,1.942C417.828,347.952,395.018,348.359,372.211,348.756"/>
					</defs>
					<clipPath id="SVGID_77_">
						<use xlink:href="#SVGID_76_"  overflow="visible"/>
					</clipPath>
					
						<linearGradient id="SVGID_78_" gradientUnits="userSpaceOnUse" x1="-4.882813e-004" y1="799.9746" x2="0.9995" y2="799.9746" gradientTransform="matrix(196.4543 -56.4794 -56.4794 -196.4543 45508.6406 157549.6875)">
						<stop  offset="0" style="stop-color:#FF218B"/>
						<stop  offset="1" style="stop-color:#000049"/>
					</linearGradient>
					<polygon clip-path="url(#SVGID_77_)" fill="url(#SVGID_78_)" points="360.179,349.068 435.443,327.43 452.701,387.459 
						377.438,409.097 					"/>
				</g>
				<g clip-path="url(#SVGID_51_)">
					<defs>
						<path id="SVGID_79_" d="M497.625,336.597c-2.706-9.249-7.611-17.7-14.06-24.435c16.881-13.032,33.756-26.057,50.635-39.087
							c13.528,14.187,23.855,31.95,29.596,51.394C541.734,328.516,519.677,332.554,497.625,336.597"/>
					</defs>
					<clipPath id="SVGID_80_">
						<use xlink:href="#SVGID_79_"  overflow="visible"/>
					</clipPath>
					
						<linearGradient id="SVGID_81_" gradientUnits="userSpaceOnUse" x1="0.0015" y1="799.9785" x2="1.0015" y2="799.9785" gradientTransform="matrix(-293.7567 184.7845 184.7845 293.7567 -147192.0938 -234762.3438)">
						<stop  offset="0" style="stop-color:#FF218B"/>
						<stop  offset="1" style="stop-color:#000049"/>
					</linearGradient>
					<polygon clip-path="url(#SVGID_80_)" fill="url(#SVGID_81_)" points="592.426,318.588 506.312,372.758 454.936,291.084 
						541.05,236.915 					"/>
				</g>
				<g clip-path="url(#SVGID_51_)">
					<defs>
						<path id="SVGID_82_" d="M407.51,213.862c-18.133,8.494-33.85,20.859-45.78,35.532c-25.178-32.439-50.346-64.862-75.506-97.264
							c25.218-29.913,58.322-54.945,96.421-71.852C390.936,124.778,399.218,169.311,407.51,213.862"/>
					</defs>
					<clipPath id="SVGID_83_">
						<use xlink:href="#SVGID_82_"  overflow="visible"/>
					</clipPath>
					
						<linearGradient id="SVGID_84_" gradientUnits="userSpaceOnUse" x1="0.002" y1="800.0977" x2="1.002" y2="800.0977" gradientTransform="matrix(105.0854 -55.4238 -55.4238 -105.0854 44648.8828 84265.8203)">
						<stop  offset="0" style="stop-color:#FF1F1E"/>
						<stop  offset="1" style="stop-color:#FFD912"/>
					</linearGradient>
					<polygon clip-path="url(#SVGID_83_)" fill="url(#SVGID_84_)" points="216.441,117.083 381.114,30.231 477.293,212.589 
						312.62,299.441 					"/>
				</g>
				<g clip-path="url(#SVGID_51_)">
					<defs>
						<path id="SVGID_85_" d="M556.527,232.638c-28.915-25.072-66.016-36.457-99.291-33.347
							c7.326-40.739,14.648-81.473,21.959-122.183c70.248-5.141,148.344,20.253,209.591,74.273
							C644.698,178.468,600.616,205.554,556.527,232.638"/>
					</defs>
					<clipPath id="SVGID_86_">
						<use xlink:href="#SVGID_85_"  overflow="visible"/>
					</clipPath>
					
						<linearGradient id="SVGID_87_" gradientUnits="userSpaceOnUse" x1="0.0029" y1="800.0469" x2="1.0023" y2="800.0469" gradientTransform="matrix(-256.1353 273.9125 273.9125 256.1353 -218481.3438 -204862.7344)">
						<stop  offset="0" style="stop-color:#93FFFF"/>
						<stop  offset="1" style="stop-color:#005EA1"/>
					</linearGradient>
					<polygon clip-path="url(#SVGID_86_)" fill="url(#SVGID_87_)" points="768.941,146.92 580.769,348.152 377.082,157.685 
						565.254,-43.547 					"/>
				</g>
				<g clip-path="url(#SVGID_51_)">
					<defs>
						<path id="SVGID_88_" d="M487.454,392.364c8.942-12.386,13.322-27.513,12.533-41.89c22.971,1.045,45.932,2.096,68.904,3.142
							c1.813,30.212-7.118,62.008-25.568,88.146C524.697,425.296,506.07,408.83,487.454,392.364"/>
					</defs>
					<clipPath id="SVGID_89_">
						<use xlink:href="#SVGID_88_"  overflow="visible"/>
					</clipPath>
					
						<linearGradient id="SVGID_90_" gradientUnits="userSpaceOnUse" x1="-4.882813e-004" y1="800.0195" x2="0.9995" y2="800.0195" gradientTransform="matrix(-353.8946 -122.8694 -122.8694 353.8946 98907.0234 -282698.6875)">
						<stop  offset="0" style="stop-color:#FF0698"/>
						<stop  offset="0.543" style="stop-color:#00A3CE"/>
						<stop  offset="1" style="stop-color:#FFD912"/>
					</linearGradient>
					<polygon clip-path="url(#SVGID_89_)" fill="url(#SVGID_90_)" points="561.748,467.557 459.169,431.941 496.409,324.68 
						598.989,360.295 					"/>
				</g>
				<g clip-path="url(#SVGID_51_)">
					<defs>
						<path id="SVGID_91_" d="M350.626,265.526c-12.633,21.899-17.679,47.099-14.971,70.375
							c-35.146-2.219-70.28-4.442-105.406-6.658c-5.219-47.795,5.786-99.509,32.479-144.206
							C292.018,211.856,321.31,238.682,350.626,265.526"/>
					</defs>
					<clipPath id="SVGID_92_">
						<use xlink:href="#SVGID_91_"  overflow="visible"/>
					</clipPath>
					
						<linearGradient id="SVGID_93_" gradientUnits="userSpaceOnUse" x1="-4.882813e-004" y1="800.0352" x2="0.9995" y2="800.0352" gradientTransform="matrix(477.6025 294.8639 294.8639 -477.6025 -235712.6094 382298.4688)">
						<stop  offset="0" style="stop-color:#FF218B"/>
						<stop  offset="1" style="stop-color:#000049"/>
					</linearGradient>
					<polygon clip-path="url(#SVGID_92_)" fill="url(#SVGID_93_)" points="259.691,128.896 418.063,226.671 315.965,392.043 
						157.593,294.267 					"/>
				</g>
				<g clip-path="url(#SVGID_51_)">
					<defs>
						<path id="SVGID_94_" d="M449.152,419.253c12.897-3.879,24.438-11.114,33.088-20.509
							c15.333,17.205,30.665,34.417,46.002,51.631c-17.049,18.908-39.841,33.591-65.383,41.594
							C458.29,467.718,453.717,443.482,449.152,419.253"/>
					</defs>
					<clipPath id="SVGID_95_">
						<use xlink:href="#SVGID_94_"  overflow="visible"/>
					</clipPath>
					
						<linearGradient id="SVGID_96_" gradientUnits="userSpaceOnUse" x1="-0.0034" y1="799.916" x2="0.9966" y2="799.916" gradientTransform="matrix(68.3166 -36.0313 -36.0313 -68.3166 29271.5391 55113.5273)">
						<stop  offset="0" style="stop-color:#93FFFF"/>
						<stop  offset="1" style="stop-color:#005EA1"/>
					</linearGradient>
					<polygon clip-path="url(#SVGID_95_)" fill="url(#SVGID_96_)" points="410.684,419.032 511.029,366.109 566.71,471.681 
						466.364,524.604 					"/>
				</g>
				<g clip-path="url(#SVGID_51_)">
					<defs>
						<path id="SVGID_97_" d="M338.525,351.018c2.78,10.445,7.147,20.275,12.795,29.032c-27.199,12.132-54.395,24.253-81.586,36.392
							c-11.085-17.172-19.583-36.478-24.955-56.969C276.023,356.648,307.274,353.842,338.525,351.018"/>
					</defs>
					<clipPath id="SVGID_98_">
						<use xlink:href="#SVGID_97_"  overflow="visible"/>
					</clipPath>
					
						<linearGradient id="SVGID_99_" gradientUnits="userSpaceOnUse" x1="9.765625e-004" y1="799.9746" x2="1.001" y2="799.9746" gradientTransform="matrix(410.3097 -199.1225 -199.1225 -410.3097 159516.875 328655.75)">
						<stop  offset="0" style="stop-color:#FF0698"/>
						<stop  offset="0.543" style="stop-color:#00A3CE"/>
						<stop  offset="1" style="stop-color:#FFD912"/>
					</linearGradient>
					<polygon clip-path="url(#SVGID_98_)" fill="url(#SVGID_99_)" points="219.082,363.489 331.011,309.17 377.018,403.97 
						265.088,458.289 					"/>
				</g>
				<g clip-path="url(#SVGID_51_)">
					<defs>
						<path id="SVGID_100_" d="M359.859,391.408c20.299,23.208,51.429,34.404,78.657,30.248c1.858,42.177,3.712,84.385,5.57,126.604
							c-71.784,11.997-154.174-16.698-207.524-77.383C277.664,444.39,318.758,417.902,359.859,391.408"/>
					</defs>
					<clipPath id="SVGID_101_">
						<use xlink:href="#SVGID_100_"  overflow="visible"/>
					</clipPath>
					
						<linearGradient id="SVGID_102_" gradientUnits="userSpaceOnUse" x1="0.0024" y1="799.9395" x2="1.0024" y2="799.9395" gradientTransform="matrix(244.4402 120.8889 120.8889 -244.4402 -96441.6172 195974.7813)">
						<stop  offset="0" style="stop-color:#FF1F1E"/>
						<stop  offset="1" style="stop-color:#FFD912"/>
					</linearGradient>
					<polygon clip-path="url(#SVGID_101_)" fill="url(#SVGID_102_)" points="277.344,308.945 511.181,424.59 403.304,642.721 
						169.467,527.076 					"/>
				</g>
			</g>
		</g>
		<g opacity="0.8" clip-path="url(#SVGID_49_)">
			<g>
				<defs>
					<rect id="SVGID_103_" x="294.26" y="159.6" width="349.423" height="349.422"/>
				</defs>
				<clipPath id="SVGID_104_">
					<use xlink:href="#SVGID_103_"  overflow="visible"/>
				</clipPath>
				<path clip-path="url(#SVGID_104_)" fill="#FFFFFF" d="M623.476,252.822c45.008,85.329,12.309,190.983-73.016,235.986
					c-85.336,45.011-190.983,12.327-235.991-73.002c-45.005-85.339-12.32-190.993,73.01-236
					C472.803,134.801,578.469,167.5,623.476,252.822"/>
			</g>
		</g>
		<g opacity="0.8" clip-path="url(#SVGID_49_)">
			<g>
				<defs>
					<rect id="SVGID_105_" x="311.461" y="176.801" width="315.023" height="315.021"/>
				</defs>
				<clipPath id="SVGID_106_">
					<use xlink:href="#SVGID_105_"  overflow="visible"/>
				</clipPath>
				<path clip-path="url(#SVGID_106_)" fill="#FFFFFF" d="M608.264,260.844c40.576,76.927,11.11,172.181-65.826,212.76
					c-76.936,40.576-172.183,11.096-212.754-65.825c-40.575-76.926-11.119-172.18,65.822-212.756
					C472.438,154.442,567.688,183.917,608.264,260.844"/>
			</g>
		</g>
	</g>
	<g clip-path="url(#SVGID_2_)">
		<defs>
			<path id="SVGID_107_" d="M535.486,237.223l3.265,3.264c-0.864,1.913-0.864,4.115,0,6.028l-3.267,3.266
				c-1.914-0.863-4.116-0.863-6.028,0l-3.265-3.264c0.863-1.913,0.863-4.115,0-6.027l3.268-3.267
				c0.956,0.431,1.984,0.647,3.013,0.647C533.501,237.87,534.529,237.654,535.486,237.223 M540.148,212.515
				c-2.218,2.217-2.709,5.496-1.491,8.195l-3.171,3.17c-2.697-1.217-5.978-0.726-8.194,1.491c-2.217,2.216-2.708,5.497-1.491,8.194
				l-3.267,3.267c-1.913-0.864-4.115-0.864-6.029,0l-3.114-3.115c1.22-2.697,0.728-5.977-1.488-8.194
				c-2.861-2.861-7.501-2.861-10.363,0c-2.86,2.861-2.86,7.5,0,10.362c2.217,2.216,5.499,2.707,8.195,1.49l3.114,3.115
				c-0.861,1.912-0.861,4.115,0,6.027l-3.377,3.378c-2.696-1.218-5.978-0.726-8.194,1.489c-2.215,2.217-2.707,5.498-1.49,8.195
				l-3.268,3.268c-2.696-1.218-5.979-0.727-8.193,1.489c-2.861,2.861-2.861,7.502,0,10.363c2.861,2.86,7.5,2.86,10.361,0
				c2.217-2.218,2.707-5.498,1.49-8.196l3.268-3.267c2.696,1.218,5.977,0.727,8.193-1.49c2.218-2.217,2.708-5.497,1.491-8.194
				l3.376-3.378c1.913,0.864,4.115,0.864,6.028,0l3.264,3.265c-1.217,2.696-0.725,5.978,1.49,8.194
				c2.217,2.216,5.498,2.708,8.195,1.49l3.115,3.116c-1.218,2.697-0.728,5.977,1.489,8.193c2.861,2.862,7.501,2.862,10.362,0
				c2.86-2.861,2.86-7.499,0-10.361c-2.217-2.216-5.497-2.707-8.195-1.49l-3.114-3.115c0.863-1.912,0.863-4.114,0-6.027l3.268-3.267
				c2.698,1.218,5.978,0.725,8.193-1.491c2.862-2.861,2.862-7.5,0-10.361c-2.216-2.217-5.495-2.708-8.194-1.49l-3.265-3.265
				c0.864-1.913,0.864-4.115,0-6.028l3.173-3.171c2.696,1.218,5.978,0.727,8.193-1.49c2.861-2.861,2.861-7.501,0-10.361
				c-1.43-1.43-3.305-2.146-5.18-2.146S541.579,211.085,540.148,212.515"/>
		</defs>
		<clipPath id="SVGID_108_">
			<use xlink:href="#SVGID_107_"  overflow="visible"/>
		</clipPath>
		
			<linearGradient id="SVGID_109_" gradientUnits="userSpaceOnUse" x1="0.0054" y1="800" x2="1.0058" y2="800" gradientTransform="matrix(66.5685 0 0 -66.5685 485.7813 53498.8594)">
			<stop  offset="0" style="stop-color:#27B6CE"/>
			<stop  offset="1" style="stop-color:#6283CE"/>
		</linearGradient>
		<rect x="485.465" y="210.369" clip-path="url(#SVGID_108_)" fill="url(#SVGID_109_)" width="67.999" height="67.19"/>
	</g>
	<g clip-path="url(#SVGID_2_)">
		<defs>
			<path id="SVGID_110_" d="M421.662,234.74l3.264,3.264c-0.864,1.913-0.864,4.116,0,6.028l-3.267,3.267
				c-1.913-0.864-4.115-0.864-6.028,0l-3.265-3.265c0.864-1.912,0.864-4.115,0-6.027l3.268-3.267
				c0.957,0.432,1.985,0.648,3.014,0.648C419.676,235.388,420.705,235.172,421.662,234.74 M426.323,210.032
				c-2.217,2.217-2.708,5.497-1.49,8.195l-3.171,3.17c-2.697-1.217-5.978-0.726-8.195,1.491c-2.217,2.216-2.708,5.498-1.491,8.195
				l-3.266,3.267c-1.914-0.864-4.115-0.864-6.029-0.001l-3.113-3.114c1.217-2.698,0.725-5.978-1.491-8.194
				c-2.861-2.861-7.5-2.862-10.362,0c-2.86,2.86-2.86,7.5,0,10.361c2.217,2.216,5.498,2.707,8.194,1.491l3.116,3.115
				c-0.863,1.912-0.863,4.114,0,6.027l-3.378,3.378c-2.697-1.218-5.978-0.728-8.194,1.489c-2.216,2.217-2.708,5.498-1.491,8.195
				l-3.266,3.267c-2.698-1.218-5.979-0.727-8.195,1.49c-2.861,2.861-2.861,7.501,0,10.362c2.861,2.861,7.5,2.86,10.361,0
				c2.218-2.218,2.709-5.498,1.491-8.196l3.267-3.267c2.697,1.218,5.978,0.728,8.194-1.489c2.217-2.217,2.708-5.497,1.491-8.195
				l3.377-3.377c1.913,0.863,4.114,0.863,6.028,0l3.264,3.264c-1.218,2.697-0.726,5.979,1.49,8.194
				c2.216,2.217,5.497,2.709,8.195,1.491l3.115,3.115c-1.218,2.698-0.726,5.978,1.49,8.194c2.86,2.861,7.501,2.861,10.361,0
				c2.861-2.861,2.861-7.499,0-10.361c-2.217-2.216-5.497-2.708-8.194-1.49l-3.115-3.115c0.864-1.912,0.864-4.115,0-6.028
				l3.268-3.267c2.697,1.219,5.977,0.726,8.194-1.49c2.861-2.862,2.861-7.501,0-10.362c-2.217-2.216-5.497-2.707-8.195-1.49
				l-3.265-3.265c0.864-1.912,0.864-4.115,0-6.027l3.172-3.172c2.697,1.219,5.979,0.726,8.195-1.489
				c2.861-2.861,2.861-7.501,0-10.362c-1.43-1.431-3.305-2.146-5.181-2.146C429.629,207.886,427.754,208.601,426.323,210.032"/>
		</defs>
		<clipPath id="SVGID_111_">
			<use xlink:href="#SVGID_110_"  overflow="visible"/>
		</clipPath>
		
			<linearGradient id="SVGID_112_" gradientUnits="userSpaceOnUse" x1="0.0078" y1="800.001" x2="1.0078" y2="800.001" gradientTransform="matrix(66.5685 0 0 -66.5685 371.8438 53496.3594)">
			<stop  offset="0" style="stop-color:#27B6CE"/>
			<stop  offset="1" style="stop-color:#6283CE"/>
		</linearGradient>
		<rect x="371.64" y="207.886" clip-path="url(#SVGID_111_)" fill="url(#SVGID_112_)" width="67.999" height="67.191"/>
	</g>
	<g clip-path="url(#SVGID_2_)">
		<defs>
			<path id="SVGID_113_" d="M460.088,223.89c1.448-1.518,2.178-3.596,1.995-5.687l4.161-2c1.52,1.449,3.597,2.178,5.688,1.996
				l2.002,4.164c-1.449,1.519-2.177,3.597-1.996,5.688l-4.16,2c-1.52-1.448-3.598-2.177-5.688-1.996L460.088,223.89z
				 M443.741,195.847c-3.646,1.753-5.182,6.131-3.43,9.779c1.359,2.825,4.292,4.374,7.24,4.118l1.942,4.043
				c-2.042,2.141-2.664,5.4-1.308,8.225c1.359,2.826,4.293,4.375,7.24,4.12l2.002,4.164c-1.449,1.519-2.177,3.597-1.996,5.688
				l-3.97,1.908c-2.142-2.043-5.399-2.664-8.226-1.307c-3.646,1.752-5.185,6.131-3.43,9.777c1.753,3.647,6.129,5.182,9.777,3.431
				c2.825-1.358,4.375-4.292,4.12-7.239l3.969-1.908c1.52,1.447,3.598,2.176,5.689,1.995l2.068,4.304
				c-2.043,2.143-2.664,5.401-1.307,8.227c1.357,2.825,4.291,4.374,7.238,4.118l2.002,4.164c-2.041,2.143-2.665,5.401-1.307,8.226
				c1.754,3.647,6.131,5.183,9.778,3.431c3.647-1.753,5.181-6.131,3.43-9.778c-1.358-2.826-4.291-4.375-7.241-4.119l-2-4.164
				c2.043-2.142,2.664-5.401,1.307-8.226c-1.357-2.825-4.291-4.375-7.239-4.119l-2.069-4.304c1.449-1.519,2.178-3.598,1.996-5.688
				l4.16-2c2.143,2.041,5.4,2.664,8.227,1.306c2.824-1.357,4.375-4.29,4.119-7.239l3.971-1.908c2.142,2.042,5.399,2.664,8.225,1.306
				c3.647-1.752,5.184-6.131,3.431-9.778c-1.753-3.645-6.131-5.182-9.777-3.429c-2.825,1.359-4.375,4.292-4.118,7.239l-3.971,1.908
				c-1.52-1.448-3.599-2.177-5.688-1.995l-2.002-4.165c2.042-2.141,2.664-5.4,1.307-8.225c-1.752-3.648-6.131-5.184-9.778-3.43
				c-2.825,1.357-4.375,4.29-4.118,7.239l-4.162,2c-1.519-1.448-3.597-2.178-5.688-1.996l-1.942-4.042
				c2.042-2.142,2.664-5.401,1.308-8.226c-1.262-2.624-3.881-4.155-6.61-4.155C445.846,195.123,444.764,195.356,443.741,195.847"/>
		</defs>
		<clipPath id="SVGID_114_">
			<use xlink:href="#SVGID_113_"  overflow="visible"/>
		</clipPath>
		
			<linearGradient id="SVGID_115_" gradientUnits="userSpaceOnUse" x1="0.0039" y1="799.8809" x2="1.0042" y2="799.8809" gradientTransform="matrix(22.0365 -62.8153 -62.8153 -22.0365 50703.9883 17896.1992)">
			<stop  offset="0" style="stop-color:#27B6CE"/>
			<stop  offset="1" style="stop-color:#6283CE"/>
		</linearGradient>
		<polygon clip-path="url(#SVGID_114_)" fill="url(#SVGID_115_)" points="412.519,267.906 445.268,174.553 529.436,204.081 
			496.686,297.433 		"/>
	</g>
	<g clip-path="url(#SVGID_2_)">
		<defs>
			<rect id="SVGID_116_" x="6.773" y="4.496" width="960" height="800"/>
		</defs>
		<clipPath id="SVGID_117_">
			<use xlink:href="#SVGID_116_"  overflow="visible"/>
		</clipPath>
		<path clip-path="url(#SVGID_117_)" fill="#1B1464" d="M333.505,317.644h8.025c0,4.206,3.624,4.907,5.436,5.007
			c1.51,0,3.667-0.4,3.667-2.503c0-3.906-16.566-2.253-16.566-15.021c0-7.411,6.04-10.765,10.268-10.765
			c3.624,0,7.291,1.351,9.017,5.106l0.431-4.206h7.421v12.568h-7.809c0-3.705-2.502-5.808-5.522-5.808
			c-1.251,0-2.977,0.902-2.977,2.654c0,5.158,17.085,3.955,17.085,15.723c0,7.812-6.299,10.615-11.433,10.615
			c-4.357,0-7.377-2.353-9.017-4.606l-0.475,3.856h-7.55V317.644z"/>
		<path clip-path="url(#SVGID_117_)" fill="#1B1464" d="M379.151,311.034c0.173-1.001,1.122-3.104,1.596-4.306l2.374-5.057h-2.374
			v-6.41h11.606v6.41h-2.33l-7.981,16.273v5.808h2.416v6.51h-13.806v-6.51h2.459v-5.908l-8.37-16.173h-2.114v-6.41h14.755v6.41
			h-2.243l2.502,5.308c0.259,0.951,1.165,3.205,1.337,4.055H379.151z"/>
		<path clip-path="url(#SVGID_117_)" fill="#1B1464" d="M413.063,327.107c-0.949,1.853-3.624,3.605-6.946,3.605
			c-7.55,0-13.547-6.809-13.547-17.625c0-10.915,6.515-18.426,13.245-18.426c6.256,0,7.723,3.404,8.413,4.206l0.907-3.605h6.428
			v14.771h-7.723c-0.129-4.055-2.372-6.359-4.918-6.359c-3.495,0-5.911,4.406-5.911,9.413c0,5.108,2.157,9.213,5.911,9.213
			c2.459,0,3.494-1.151,4.142-2.453v-2.103h-2.632v-5.358h14.323v5.358h-1.726v12.518h-8.629L413.063,327.107z"/>
		<path clip-path="url(#SVGID_117_)" fill="#1B1464" d="M456.422,304.074c-0.345,2.254-0.949,5.559-1.251,6.71l-4.53,19.478h-9.016
			l-4.833-19.979c-0.216-0.851-0.776-3.704-0.906-6.208h-0.173v19.729h2.459v6.459h-11.692v-6.459h2.329v-22.083h-2.286v-6.459
			h16.352l4.356,18.728l4.143-18.728h16.437v6.459h-2.373v22.031h2.373v6.51h-13.633v-6.51h2.415v-16.723v-2.955H456.422z"/>
		<path clip-path="url(#SVGID_117_)" fill="#1B1464" d="M486.451,330.262v-6.561h4.1l-0.907-3.405h-8.845l-0.904,3.405h3.364v6.561
			h-13.72v-6.561h2.935l5.823-21.98h-1.769v-6.46h16.566l7.638,28.44h3.019v6.561H486.451z M488.047,314.29l-2.846-10.816
			l-2.806,10.816H488.047z"/>
		<path clip-path="url(#SVGID_117_)" fill="#1B1464" d="M516.61,300.92c3.021-4.057,6.903-6.209,11.218-6.209
			c5.738,0,10.268,4.206,10.268,10.965c0,5.759-2.329,7.762-6.903,11.216c-2.07,1.553-5.479,4.708-6.471,6.71h7.594v-4.006h7.247
			v10.665h-23.297v-7.261c2.373-4.506,3.537-5.959,6.299-8.513c3.063-3.154,7.637-5.257,7.637-8.362c0-2.554-1.64-3.304-3.625-3.304
			c-2.329,0-4.012,2.203-5.306,3.805L516.61,300.92z"/>
		<path clip-path="url(#SVGID_117_)" fill="#1B1464" d="M541.289,312.587c0-10.615,5.005-17.975,12.167-17.975
			c8.456,0,12.382,7.259,12.382,18.325c0,11.116-4.357,17.926-12.167,17.926C546.467,330.863,541.289,324.904,541.289,312.587
			 M557.166,312.937c0-5.958-1.64-10.265-3.753-10.265c-1.597-0.049-3.581,3.806-3.581,9.915c0,6.46,2.113,10.515,3.839,10.515
			C555.656,323.102,557.166,319.047,557.166,312.937"/>
		<path clip-path="url(#SVGID_117_)" fill="#1B1464" d="M567.564,301.821c2.459-1.402,4.402-2.203,7.551-6.56h7.678v28.341h4.014
			v6.659H569.55v-6.659h4.314v-18.577l-4.314,2.354L567.564,301.821z"/>
		<path clip-path="url(#SVGID_117_)" fill="#1B1464" d="M608.507,305.177c-1.466-1.002-3.667-2.554-6.298-2.554
			c-3.193,0.101-5.221,3.104-5.652,6.809c1.122-1.302,3.365-2.453,5.652-2.554c5.521-0.25,10.094,4.356,10.094,11.167
			c0,6.709-4.141,12.417-11.173,12.667c-7.075,0.25-12.296-5.658-12.555-15.672c-0.129-6.659,1.339-19.928,12.685-20.329
			c2.891-0.1,7.636,1.454,10.182,3.956L608.507,305.177z M596.643,316.943c0,2.503,1.252,5.909,4.014,5.909
			c2.199,0,3.969-1.903,3.926-4.306c-0.045-1.953-0.908-4.506-3.495-4.457C599.06,314.189,597.334,315.941,596.643,316.943"/>
		<path clip-path="url(#SVGID_117_)" d="M352.948,352.684c0,3.396-0.934,6.372-2.804,8.93c-1.869,2.559-4.447,3.838-7.732,3.838
			c-1.072,0-2.858-0.085-5.361-0.252c0.154-3.705,0.231-7.793,0.231-12.264c0-4.207-0.077-7.9-0.231-11.081h1.699
			c0.411,0,1.04-0.017,1.884-0.054c0.845-0.035,1.4-0.054,1.668-0.054c3.636,0,6.319,1.037,8.049,3.11
			C352.083,346.932,352.948,349.541,352.948,352.684 M350.26,353.49c0-2.652-0.729-4.869-2.186-6.651
			c-1.458-1.78-3.71-2.671-6.759-2.671c-0.432,0-1.024,0.06-1.776,0.18c0.083,2.785,0.124,5.646,0.124,8.588
			c0,3.227,0.057,6.502,0.17,9.824c0.824,0.192,1.617,0.288,2.379,0.288c2.719,0,4.74-0.935,6.064-2.806
			C349.599,358.371,350.26,356.121,350.26,353.49"/>
		<path clip-path="url(#SVGID_117_)" d="M360.318,365.199h-2.936c0.155-3.873,0.232-7.961,0.232-12.264
			c0-4.232-0.077-7.926-0.232-11.081h2.936c-0.144,3.264-0.216,6.956-0.216,11.081C360.102,357.263,360.174,361.35,360.318,365.199"
			/>
		<path clip-path="url(#SVGID_117_)" d="M380.803,364.715c-1.689,0.646-3.394,0.969-5.113,0.969c-3.615,0-6.342-1.121-8.181-3.362
			c-1.839-2.24-2.758-5.011-2.758-8.311c0-3.335,0.999-6.247,2.997-8.74c1.999-2.493,4.769-3.737,8.312-3.737
			c1.277,0,2.487,0.172,3.63,0.519l-0.386,2.976c-1.699-0.477-3.069-0.717-4.109-0.717c-2.493,0-4.401,0.877-5.725,2.627
			c-1.323,1.75-1.985,3.924-1.985,6.518c0,2.607,0.76,4.889,2.279,6.85s3.664,2.94,6.435,2.94c0.504,0,1.262-0.091,2.271-0.27
			c-0.175-1.242-0.262-2.688-0.262-4.338c0-1.387-0.072-2.743-0.216-4.071h2.812c-0.083,1.578-0.124,3.246-0.124,5.002
			C380.679,360.322,380.721,362.038,380.803,364.715"/>
		<path clip-path="url(#SVGID_117_)" d="M388.698,365.199h-2.936c0.155-3.873,0.231-7.961,0.231-12.264
			c0-4.232-0.077-7.926-0.231-11.081h2.936c-0.144,3.264-0.216,6.956-0.216,11.081C388.481,357.263,388.554,361.35,388.698,365.199"
			/>
		<path clip-path="url(#SVGID_117_)" d="M407.375,341.854l-0.077,2.528c-2.04-0.119-4.146-0.18-6.319-0.18
			c-0.021,2.295-0.031,5.206-0.031,8.732c0,3.896,0.051,7.984,0.154,12.264h-2.827c0.124-4.075,0.186-8.164,0.186-12.264
			c0-3.479-0.032-6.39-0.093-8.732c-1.525,0-3.667,0.072-6.427,0.215l0.077-2.563H407.375z"/>
		<path clip-path="url(#SVGID_117_)" d="M426.409,365.199h-3.259c0-0.801-0.649-3.316-1.947-7.548h-8.915
			c-1.277,4.171-1.915,6.688-1.915,7.548h-3.122c0-0.441,1.329-4.264,3.986-11.467c2.657-7.201,3.986-11.161,3.986-11.878h3.584
			c0,0.705,1.267,4.608,3.8,11.708C425.142,360.663,426.409,364.543,426.409,365.199 M420.492,355.302
			c-2.42-7.016-3.631-10.745-3.631-11.188h-0.169c0,0.371-1.252,4.101-3.754,11.188H420.492z"/>
		<path clip-path="url(#SVGID_117_)" d="M441.734,362.564l-0.093,2.635h-12.158c0.124-2.952,0.186-7.041,0.186-12.264
			c0-4.494-0.062-8.188-0.186-11.081h2.874c-0.124,2.414-0.186,6.108-0.186,11.081c0,4.088-0.057,7.363-0.17,9.824
			C435.091,362.76,438.335,362.695,441.734,362.564"/>
		<path clip-path="url(#SVGID_117_)" d="M467.07,365.199h-2.981c-0.989-3.43-1.71-5.701-2.163-6.813
			c-0.576-1.398-1.23-2.301-1.963-2.708c-0.575-0.323-1.611-0.483-3.104-0.483c-0.876,0-1.654,0.011-2.334,0.035
			c0,3.861,0.063,7.185,0.186,9.969h-2.873c0.154-3.705,0.232-7.793,0.232-12.264c0-4.207-0.078-7.9-0.232-11.081h2.179
			c0.464,0,1.05-0.017,1.761-0.054c0.711-0.035,1.524-0.054,2.441-0.054c4.512,0,6.766,1.806,6.766,5.415c0,3-1.266,5.109-3.8,6.328
			v0.18c1.133,0.395,2.05,1.309,2.751,2.744C464.521,357.609,465.567,360.537,467.07,365.199 M462.344,348.381
			c0-2.845-1.659-4.268-4.975-4.268c-1.185,0-2.179,0.078-2.982,0.234c0.072,2.078,0.108,4.906,0.108,8.48
			c0.618,0.023,1.21,0.035,1.776,0.035C460.32,352.863,462.344,351.369,462.344,348.381"/>
		<path clip-path="url(#SVGID_117_)" d="M482.798,354.674c0,0.502-0.021,1.196-0.062,2.08l-10.613,0.216
			c0.102,1.745,0.685,3.207,1.745,4.384c1.061,1.178,2.467,1.766,4.218,1.766c1.564,0,3.032-0.221,4.402-0.664l-0.263,2.528
			c-1.009,0.468-2.466,0.7-4.372,0.7c-2.678,0-4.719-0.849-6.125-2.547c-1.406-1.696-2.109-3.765-2.109-6.203
			c0-2.605,0.643-4.85,1.924-6.732c1.282-1.883,3.005-2.824,5.168-2.824c1.987,0,3.499,0.682,4.533,2.044
			C482.28,350.784,482.798,352.535,482.798,354.674 M480.219,354.711c0-3.359-1.211-5.039-3.631-5.039
			c-2.473,0-3.93,1.746-4.373,5.236L480.219,354.711z"/>
		<path clip-path="url(#SVGID_117_)" d="M499.451,365.199h-2.812c0.226-3.143,0.34-6.574,0.34-10.291c0-1.842-0.321-3.1-0.964-3.775
			c-0.646-0.675-1.564-1.012-2.76-1.012c-1.463,0-2.811,0.615-4.047,1.846c0,4.076,0.021,8.486,0.062,13.232h-2.811
			c0.175-4.063,0.263-7.004,0.263-8.822c0-2.797-0.227-5.509-0.681-8.14l2.719-0.448l0.294,2.188h0.124
			c1.524-1.603,3.155-2.403,4.897-2.403c1.709,0,3.032,0.438,3.969,1.318c0.939,0.877,1.406,2.44,1.406,4.688
			c0,0.229-0.01,0.676-0.031,1.346c-0.02,0.67-0.03,1.117-0.03,1.344C499.39,358.268,499.411,361.243,499.451,365.199"/>
		<path clip-path="url(#SVGID_117_)" d="M515.102,365.199l-2.426,0.107c-0.123-0.584-0.184-1.141-0.184-1.668h-0.155
			c-1.269,1.34-2.993,2.008-5.176,2.008c-1.186,0-2.204-0.402-3.06-1.209c-0.854-0.807-1.282-1.957-1.282-3.451
			c0-1.842,0.67-3.32,2.009-4.438c1.338-1.117,3.826-1.706,7.463-1.767c0.03-0.287,0.046-0.615,0.046-0.986
			c0-1.469-0.338-2.449-1.013-2.939c-0.674-0.49-1.697-0.734-3.066-0.734c-1.617,0-3.209,0.232-4.775,0.698l0.264-2.475
			c1.545-0.513,3.321-0.771,5.33-0.771c1.834,0,3.25,0.438,4.249,1.318c0.999,0.877,1.499,2.375,1.499,4.49
			c0,0.563-0.023,1.582-0.07,3.058c-0.047,1.477-0.07,2.46-0.07,2.95C514.684,361.565,514.824,363.502,515.102,365.199
			 M512.367,361.721c-0.052-1.816-0.076-3.449-0.076-4.895c-1.938,0-3.41,0.167-4.42,0.502c-1.689,0.598-2.533,1.739-2.533,3.426
			c0,1.624,0.988,2.438,2.967,2.438C510.004,363.191,511.358,362.701,512.367,361.721"/>
		<path clip-path="url(#SVGID_117_)" d="M521.822,365.199h-2.797c0.145-2.391,0.217-5.121,0.217-8.193
			c0-3.455-0.18-6.354-0.541-8.696l3.09-0.484c-0.125,2.498-0.186,5.558-0.186,9.181
			C521.605,359.873,521.679,362.605,521.822,365.199 M522.471,342.787c0,0.609-0.17,1.139-0.51,1.586
			c-0.34,0.449-0.818,0.673-1.437,0.673c-0.525,0-0.935-0.194-1.229-0.583c-0.293-0.388-0.44-0.857-0.44-1.406
			c0-0.6,0.176-1.119,0.525-1.561c0.352-0.442,0.835-0.664,1.452-0.664c0.505,0,0.904,0.195,1.198,0.582
			C522.325,341.805,522.471,342.262,522.471,342.787"/>
		<path clip-path="url(#SVGID_117_)" d="M535.727,360.34c0,3.49-1.921,5.236-5.764,5.236c-1.698,0-3.285-0.197-4.758-0.592
			l0.479-2.637c1.339,0.6,2.791,0.897,4.356,0.897c2.245,0,3.367-0.741,3.367-2.224c0-0.717-0.249-1.287-0.748-1.711
			c-0.5-0.425-1.326-0.9-2.48-1.427c-1.463-0.669-2.523-1.314-3.182-1.937c-0.969-0.92-1.453-2.031-1.453-3.334
			c0-1.363,0.443-2.532,1.329-3.506s2.235-1.463,4.047-1.463c1.772,0,3.193,0.175,4.265,0.521l-0.479,2.582
			c-1.113-0.513-2.4-0.77-3.863-0.77c-1.977,0-2.965,0.663-2.965,1.989c0,0.67,0.221,1.21,0.664,1.623
			c0.442,0.412,1.308,0.912,2.595,1.496c1.391,0.635,2.421,1.256,3.09,1.867C535.227,357.896,535.727,359.025,535.727,360.34"/>
		<path clip-path="url(#SVGID_117_)" d="M548.98,360.34c0,3.49-1.92,5.236-5.762,5.236c-1.699,0-3.286-0.197-4.758-0.592
			l0.479-2.637c1.339,0.6,2.791,0.897,4.355,0.897c2.246,0,3.369-0.741,3.369-2.224c0-0.717-0.25-1.287-0.748-1.711
			c-0.501-0.425-1.328-0.9-2.48-1.427c-1.463-0.669-2.523-1.314-3.184-1.937c-0.967-0.92-1.452-2.031-1.452-3.334
			c0-1.363,0.444-2.532,1.329-3.506c0.887-0.974,2.234-1.463,4.047-1.463c1.772,0,3.194,0.175,4.266,0.521l-0.48,2.582
			c-1.111-0.513-2.399-0.77-3.861-0.77c-1.979,0-2.966,0.663-2.966,1.989c0,0.67,0.221,1.21,0.665,1.623
			c0.441,0.412,1.307,0.912,2.594,1.496c1.391,0.635,2.42,1.256,3.09,1.867C548.482,357.896,548.98,359.025,548.98,360.34"/>
		<path clip-path="url(#SVGID_117_)" d="M564.029,365.199l-2.426,0.107c-0.125-0.584-0.186-1.141-0.186-1.668h-0.155
			c-1.266,1.34-2.991,2.008-5.175,2.008c-1.185,0-2.204-0.402-3.059-1.209c-0.855-0.807-1.282-1.957-1.282-3.451
			c0-1.842,0.671-3.32,2.009-4.438c1.338-1.117,3.826-1.706,7.461-1.767c0.03-0.287,0.046-0.615,0.046-0.986
			c0-1.469-0.337-2.449-1.011-2.939c-0.675-0.49-1.697-0.734-3.067-0.734c-1.616,0-3.208,0.232-4.772,0.698l0.262-2.475
			c1.545-0.513,3.322-0.771,5.33-0.771c1.834,0,3.249,0.438,4.249,1.318c0.999,0.877,1.497,2.375,1.497,4.49
			c0,0.563-0.021,1.582-0.068,3.058c-0.047,1.477-0.07,2.46-0.07,2.95C563.611,361.565,563.75,363.502,564.029,365.199
			 M561.295,361.721c-0.051-1.816-0.078-3.449-0.078-4.895c-1.936,0-3.408,0.167-4.417,0.502c-1.69,0.598-2.534,1.739-2.534,3.426
			c0,1.624,0.988,2.438,2.965,2.438C558.931,363.191,560.284,362.701,561.295,361.721"/>
		<path clip-path="url(#SVGID_117_)" d="M581.038,365.199h-2.811c0.226-3.143,0.339-6.574,0.339-10.291
			c0-1.842-0.322-3.1-0.967-3.775c-0.643-0.675-1.563-1.012-2.756-1.012c-1.463,0-2.813,0.615-4.049,1.846
			c0,4.076,0.021,8.486,0.063,13.232h-2.813c0.176-4.063,0.263-7.004,0.263-8.822c0-2.797-0.228-5.509-0.679-8.14l2.719-0.448
			l0.294,2.188h0.123c1.524-1.603,3.156-2.403,4.897-2.403c1.709,0,3.033,0.438,3.971,1.318c0.936,0.877,1.405,2.44,1.405,4.688
			c0,0.229-0.011,0.676-0.03,1.346c-0.021,0.67-0.031,1.117-0.031,1.344C580.977,358.268,580.997,361.243,581.038,365.199"/>
		<path clip-path="url(#SVGID_117_)" d="M596.317,362.455l-0.155,2.404c-0.834,0.549-1.951,0.824-3.352,0.824
			c-2.668,0-4.707-0.854-6.118-2.564c-1.411-1.709-2.116-3.771-2.116-6.186c0-2.559,0.741-4.758,2.225-6.598
			c1.482-1.841,3.444-2.762,5.886-2.762c1.227,0,2.226,0.143,2.997,0.43l-0.418,2.815c-1.081-0.466-2.177-0.698-3.289-0.698
			c-1.463,0-2.627,0.591-3.492,1.773c-0.865,1.186-1.299,2.666-1.299,4.447c0,1.936,0.516,3.55,1.546,4.841s2.487,1.937,4.372,1.937
			C593.875,363.119,594.947,362.898,596.317,362.455"/>
		<path clip-path="url(#SVGID_117_)" d="M612.045,354.674c0,0.502-0.021,1.196-0.062,2.08l-10.614,0.216
			c0.104,1.745,0.684,3.207,1.745,4.384c1.061,1.178,2.467,1.766,4.218,1.766c1.566,0,3.033-0.221,4.404-0.664l-0.264,2.528
			c-1.01,0.468-2.467,0.7-4.372,0.7c-2.679,0-4.719-0.849-6.125-2.547c-1.406-1.696-2.11-3.765-2.11-6.203
			c0-2.605,0.643-4.85,1.924-6.732c1.283-1.883,3.006-2.824,5.168-2.824c1.988,0,3.5,0.682,4.535,2.044
			C611.525,350.784,612.045,352.535,612.045,354.674 M609.465,354.711c0-3.359-1.211-5.039-3.631-5.039
			c-2.473,0-3.93,1.746-4.372,5.236L609.465,354.711z"/>
		<path clip-path="url(#SVGID_117_)" fill="#2E3192" d="M544.648,410.24c-0.534,0-1.029-0.15-1.48-0.369v2.188
			c0,0.41-0.114,0.781-0.285,1.123c0.552-0.447,1.231-0.751,1.994-0.751h4.172c0.786,0,1.481,0.313,2.033,0.78v-3.02
			c0-0.227,0.096-0.416,0.135-0.636c-0.563,0.399-1.212,0.685-1.947,0.685H544.648z"/>
		<path clip-path="url(#SVGID_117_)" fill="#2E3192" d="M552.688,402.633v4.2c0,0.077-0.039,0.133-0.039,0.2
			c0.457-0.373,1.002-0.619,1.584-0.782v-2.198C553.536,403.824,552.973,403.3,552.688,402.633"/>
		<path clip-path="url(#SVGID_117_)" fill="#2E3192" d="M552.285,419.551v0.269c0,1.78-1.458,3.228-3.246,3.228h-4.162
			c-1.793,0-3.245-1.447-3.245-3.228v-4.16c0-0.593,0.21-1.114,0.487-1.592c-0.429,0.324-0.938,0.554-1.52,0.554h-2.463
			c-1.413,0-2.556-1.152-2.556-2.563v-2.447c0-1.419,1.143-2.562,2.556-2.562h2.463c0.249,0,0.48,0.079,0.706,0.145
			c-0.009-0.124-0.065-0.24-0.065-0.361v-4.609c0-0.944,0.381-1.799,1.002-2.407h-0.239c-1.413,0-2.566-1.153-2.566-2.563v-2.457
			c0-1.409,1.153-2.562,2.566-2.562h2.454c1.423,0,2.568,1.152,2.568,2.562v2.457c0,0.601-0.239,1.123-0.581,1.563h2.825
			c1.527,0,2.778,1.024,3.216,2.407v-2.048c0-1.123,0.736-2.047,1.748-2.39v-2.484c0-2.628-2.156-4.78-4.793-4.78h-22.357
			c-2.634,0-4.794,2.152-4.794,4.78v38.236c0,2.63,2.16,4.78,4.794,4.78h22.357c2.644,0,4.793-2.15,4.793-4.78V420.58
			C553.499,420.391,552.811,420.075,552.285,419.551 M534.205,404.053v-2c0-1.313,1.067-2.381,2.378-2.381h2.004
			c1.308,0,2.378,1.067,2.378,2.381v2c0,1.304-1.07,2.371-2.378,2.371h-2.004C535.272,406.424,534.205,405.356,534.205,404.053"/>
		<path clip-path="url(#SVGID_117_)" fill="#2E3192" d="M552.688,416.658c0,1.39,1.144,2.543,2.546,2.543h6.484
			c1.392,0,2.55-1.153,2.55-2.543v-6.467c0-1.397-1.158-2.549-2.55-2.549h-6.484c-1.402,0-2.546,1.151-2.546,2.549V416.658z"/>
		<path clip-path="url(#SVGID_117_)" fill="#2E3192" d="M537.175,412.059c0,0.534,0.438,0.974,0.964,0.974h2.461
			c0.536,0,0.967-0.439,0.967-0.974v-2.447c0-0.534-0.431-0.969-0.967-0.969h-2.461c-0.525,0-0.964,0.435-0.964,0.969V412.059z"/>
		<path clip-path="url(#SVGID_117_)" fill="#2E3192" d="M535.799,404.053c0,0.429,0.354,0.778,0.784,0.778h2.004
			c0.43,0,0.781-0.35,0.781-0.778v-2c0-0.427-0.352-0.78-0.781-0.78h-2.004c-0.43,0-0.784,0.354-0.784,0.78V404.053z"/>
		<path clip-path="url(#SVGID_117_)" fill="#2E3192" d="M567.847,411.42c0,0.439,0.354,0.793,0.783,0.793h2.004
			c0.43,0,0.785-0.354,0.785-0.793v-1.987c0-0.429-0.355-0.79-0.785-0.79h-2.004c-0.429,0-0.783,0.361-0.783,0.79V411.42z"/>
		<path clip-path="url(#SVGID_117_)" fill="#2E3192" d="M560.698,396.359c0,0.332,0.275,0.619,0.611,0.619h1.574
			c0.334,0,0.62-0.287,0.62-0.619v-1.572c0-0.333-0.286-0.609-0.62-0.609h-1.574c-0.336,0-0.611,0.276-0.611,0.609V396.359z"/>
		<path clip-path="url(#SVGID_117_)" fill="#2E3192" d="M554.083,401.635c0,0.533,0.438,0.969,0.962,0.969h2.463
			c0.535,0,0.966-0.436,0.966-0.969v-2.449c0-0.532-0.431-0.972-0.966-0.972h-2.463c-0.523,0-0.962,0.439-0.962,0.972V401.635z"/>
		<path clip-path="url(#SVGID_117_)" fill="#2E3192" d="M541.04,397.254c0,0.534,0.431,0.96,0.963,0.96h2.454
			c0.534,0,0.976-0.426,0.976-0.96v-2.457c0-0.534-0.441-0.96-0.976-0.96h-2.454c-0.532,0-0.963,0.426-0.963,0.96V397.254z"/>
		<path clip-path="url(#SVGID_117_)" fill="#2E3192" d="M563.008,404.012c0,0.906,0.733,1.639,1.641,1.639h4.162
			c0.907,0,1.644-0.732,1.644-1.639v-4.159c0-0.896-0.736-1.639-1.644-1.639h-4.162c-0.907,0-1.641,0.743-1.641,1.639V404.012z"/>
		<path clip-path="url(#SVGID_117_)" fill="#2E3192" d="M543.235,419.819c0,0.904,0.736,1.638,1.642,1.638h4.163
			c0.905,0,1.643-0.733,1.643-1.638v-4.16c0-0.896-0.737-1.639-1.643-1.639h-4.163c-0.905,0-1.642,0.743-1.642,1.639V419.819z"/>
		<path clip-path="url(#SVGID_117_)" fill="#2E3192" d="M542.834,406.833c0,1,0.811,1.808,1.814,1.808h4.621
			c1.003,0,1.824-0.808,1.824-1.808v-4.609c0-0.999-0.821-1.809-1.824-1.809h-4.621c-0.991,0-1.814,0.81-1.814,1.809V406.833z"/>
		<path clip-path="url(#SVGID_117_)" fill="#D4145A" d="M436.688,421.253l-0.034-0.064l0.034-0.477v-0.957l-0.498-0.699l0.229-1.35
			l-0.333-0.1v-2.927c0,0-0.944-0.749-0.996-0.749c-0.056,0-0.498-0.129-0.498-0.129l-0.095-0.555l-1.226-1.617l0.122-0.58
			l0.043-0.952l0.845-0.626l-0.123-1.063l-1.235-0.099l-0.968-1.165l-0.685-0.199l-0.442-0.083l0.052-0.427l-0.564-0.085v0.239
			l-1.414-0.367l-0.564-0.918l0.23-0.445l-0.896-1.376l-0.15-1.007h-0.362l0.121,0.978l0.615,1.007l-0.065,0.4l-0.525-0.088
			l-0.643-1.16v-1.349l-0.673-0.343v-0.973c-0.831,2.054-1.292,4.316-1.292,6.687c0,7.887,5.096,14.523,11.988,16.479V421.253z"/>
		<path clip-path="url(#SVGID_117_)" fill="#D4145A" d="M431.177,405.856l1.235-0.873l0.108,0.432l-0.376,0.753l0.94,0.169
			l0.099,1.538l1.286,0.228l0.824-0.997l0.995,0.214l0.348,0.51h0.052v-3.941h9.563l0.841-0.641v-0.968l0.874-0.511l0.356,0.034
			h0.719l0.563-0.317l1.813-0.148v0.978l1.432,0.387l0.283,0.213h0.263v-0.536l0.827-0.084l0.783,0.62h1.291l0.095-0.089
			c-0.131-0.461-0.276-0.914-0.442-1.354l-0.84,0.014l-0.422-0.49l-0.081-0.784l-0.437,0.248l-0.23,0.962l-0.625-0.703l-0.027-0.666
			l-0.602-0.545l-0.221-0.232h-0.699l0.22,0.659l0.841,0.495l0.146,0.164l-0.184,0.094l0.01,0.523l-0.414,0.182l-0.348-0.079
			l-0.221-0.327l0.568,0.029l0.155-0.219l-1.263-0.902l-0.096-0.381l-0.51,0.49l-0.521-0.115l-0.795,1.086l-0.154,0.428
			l-0.503,0.051l-0.752,0.004l-0.446-0.223l-0.131-0.938l0.158-0.447l0.762-0.178l0.832,0.178l0.104-0.486l-0.357-0.088l0.122-0.76
			l0.837-0.139l0.586-0.872l0.602-0.104l0.545,0.084h0.202l-0.108-0.819l-0.662,0.283l-0.235-0.614l-0.385-0.055l-0.07-0.422
			l0.314-0.357l0.742-0.313l0.192-0.361c-2.851-2.649-6.586-4.265-10.676-4.265c-3.551,0-6.835,1.215-9.502,3.268l0.817-0.005
			l0.36,0.214l0.687,0.152l0.052,0.289l1.089,0.039l-0.145-0.367l-0.968-0.034l0.227-0.224l-0.082-0.272h-0.872l0.954-0.755h0.915
			l0.428,0.625l0.715,0.045l0.426-0.44l0.325,0.169l-0.592,0.609c0,0-0.817,0.02-0.78,0.02c0.042,0,0.07,0.596,0.07,0.596
			l0.992-0.03l0.109-0.284l0.685-0.043l0.079-0.427l-0.404-0.069l0.137-0.381l0.306-0.1l1.079,0.055l-0.591,0.57l0.094,0.436
			l0.616,0.105l-0.039-0.799l0.594-0.322l1.046-0.13l1.517,0.71v0.609l0.485,0.129l-0.24,0.481h-0.687l-0.202,0.55l-1.564-0.391
			l1.231-0.689l-0.47-0.422l-1.065,0.139l-0.09,0.104h-0.005l-0.017,0.025l-0.306,0.333l-0.502,0.044l0.038,0.269l0.179,0.073
			l-0.004,0.09l-0.415,0.063l-0.027,0.249l-0.396,0.024l-0.07-0.5l-0.705,0.227l-1.442,0.89l0.164,0.63l0.399,0.276l0.808,0.114
			v0.968l0.372-0.064l0.343-0.754l0.859-0.288v-1.159l0.474-0.378l1.151,0.282l-0.079,0.77h0.311l0.845-0.443l0.042,1.008
			l0.62,0.398l-0.028,0.6l-0.592,0.213l0.042,0.193l0.709,0.342l-0.015,0.413l-0.201,0.019c-0.004-0.006-0.004-0.01-0.004-0.01
			l-0.901-0.293l-0.039-0.307l0.263-0.189v-0.276l-0.281-0.075l-0.072,0.258l-0.492,0.08l-0.052-0.021v0.023l-0.174,0.031
			l-0.135-0.297l-0.165-0.075h-0.353l-0.158,0.139v0.309l0.3,0.104l0.296,0.045l-0.066,0.029l-0.273,0.322l-0.116-0.159
			l-0.263-0.074l-0.72,0.71l0.095,0.083l-1.057,0.616l-0.992,1.091l-0.07,0.491l-0.996,0.689l-0.494,0.525l0.05,1.053l-0.685-0.338
			l0.005-0.615h-1.907l-0.986,0.531l-0.428,0.832l-0.168,0.666l0.271,0.641L431.177,405.856z M448.318,396.606l0.145-0.24
			l0.53-0.113l0.132,0.685l0.287,0.481l0.188,0.229l0.343,0.139l-0.323,0.407l-0.626,0.063h-0.47l0.052-0.591l0.392-0.085
			l-0.034-0.277l-0.36-0.237l-0.254-0.189V396.606z M447.444,397.671l0.319-0.544l0.436-0.104l0.311,0.139l-0.029,0.371l-0.66,0.492
			h-0.376V397.671z M438.97,399.357h0.465l0.094-0.264l0.188-0.003l0.207,0.05l-0.089,0.192l-0.229,0.024l-0.047,0.233l-0.179,0.115
			l-0.281,0.023c-0.01-0.068-0.014-0.123-0.014-0.123h-0.113V399.357z M438.336,399.558l0.15-0.2l0.202,0.169l-0.034,0.248
			l-0.338,0.025L438.336,399.558z"/>
		<path clip-path="url(#SVGID_117_)" fill="#D4145A" d="M437.81,426.524h30.594v-21.298H437.81V426.524z M440.914,408.499h24.385
			v14.752h-24.385V408.499z"/>
		<path clip-path="url(#SVGID_117_)" fill="#D4145A" d="M453.54,427.517h-15.731l-4.166,5.878h38.922l-4.172-5.878H453.54z
			 M438.125,432.309l2.644-3.716h24.674l2.23,3.716H438.125z"/>
		<polygon clip-path="url(#SVGID_117_)" fill="#D4145A" points="457.313,433.821 457.313,434.541 448.971,434.541 448.971,433.821 
			433.408,433.821 433.408,435.22 472.799,435.22 472.799,433.821 		"/>
		<path clip-path="url(#SVGID_117_)" fill="#93278F" d="M486.795,407.422c0.171,0.032,0.324,0.029,0.805-0.28
			c0.211-0.139,0.526-0.373,0.817-0.694l0.128-0.144c1.087-1.222,3.634-4.082,7.311-3.926c3.035,0.186,5.188,2.121,6.223,5.594
			c0.032,0.117,0.057,0.189,0.08,0.246c0.017,0.069,0.039,0.142,0.061,0.213h1.118c-0.056-0.146-0.106-0.303-0.147-0.453
			c-0.006-0.027-0.016-0.05-0.029-0.074c-0.011-0.029-0.029-0.095-0.047-0.152c-0.164-0.551-0.598-2.012-1.655-3.385
			c-1.364-1.781-3.225-2.751-5.531-2.891c-0.003,0-0.008,0-0.01-0.002c-4.251-0.182-7.038,2.948-8.229,4.285l-0.126,0.143
			c-0.326,0.361-0.711,0.59-0.843,0.655c-0.045,0.015-0.09,0.034-0.131,0.063c-0.166,0.104-0.247,0.286-0.203,0.461
			C486.433,407.251,486.592,407.388,486.795,407.422"/>
		<path clip-path="url(#SVGID_117_)" fill="#93278F" d="M492.508,413.747c-1.479,0.754-3.349,1.654-4.822,2.188
			c-0.271,0.096-0.397,0.363-0.283,0.591c0.089,0.172,0.285,0.275,0.494,0.275c0.068,0,0.142-0.013,0.209-0.035
			c2.1-0.76,4.941-2.223,6.439-3.02H492.508z"/>
		<path clip-path="url(#SVGID_117_)" fill="#93278F" d="M500.457,408.429c0.129-0.607,0.057-1.199-0.221-1.689
			c-0.347-0.607-0.988-1.051-1.863-1.273c-1.279-0.331-2.832,0.268-4.252,1.645c-0.01,0.01-0.684,0.607-1.656,1.318h1.596
			c0.529-0.42,0.856-0.713,0.865-0.722c0.861-0.835,2.139-1.636,3.136-1.378c0.587,0.152,0.993,0.421,1.212,0.801
			c0.201,0.361,0.228,0.82,0.089,1.299H500.457z"/>
		<path clip-path="url(#SVGID_117_)" fill="#93278F" d="M493.438,405.529c0.039-0.032,0.084-0.06,0.125-0.09
			c0.012-0.008,0.096-0.063,0.113-0.079c0.375-0.238,0.77-0.453,1.189-0.636c0.396-0.173,0.793-0.29,1.271-0.374
			c0.162-0.029,0.197-0.033,0.316-0.043c0.289-0.026,0.534-0.188,0.534-0.454c0-0.228-0.244-0.477-0.534-0.45
			c-1.938,0.168-3.593,1.19-4.869,2.379c-0.242,0.226-0.461,0.467-0.697,0.699c-0.306,0.305-0.645,0.588-0.994,0.855
			c-0.361,0.275-0.652,0.472-1.08,0.678c-0.289,0.143-0.586,0.281-0.885,0.414h2.068c0.748-0.479,1.39-1.037,1.979-1.648
			c0.24-0.25,0.498-0.488,0.764-0.715c0.148-0.123,0.298-0.244,0.452-0.361C493.271,405.647,493.354,405.587,493.438,405.529"/>
		<path clip-path="url(#SVGID_117_)" fill="#93278F" d="M487.418,414.438c0.336-0.096,1.076-0.322,2.036-0.691h-2.662
			c-0.112,0.119-0.147,0.282-0.079,0.435c0.08,0.18,0.285,0.292,0.5,0.292c0.063,0,0.123-0.009,0.184-0.027L487.418,414.438z"/>
		<path clip-path="url(#SVGID_117_)" fill="#93278F" d="M497.027,407.736c-0.203,0.239-0.416,0.47-0.639,0.696h1.361
			c0.049-0.059,0.101-0.115,0.15-0.172c0.172-0.203,0.113-0.484-0.125-0.63C497.533,407.487,497.198,407.532,497.027,407.736"/>
		<path clip-path="url(#SVGID_117_)" fill="#93278F" d="M501.99,417.133c-0.742-0.209-1.652-0.754-2.529-1.283
			c-1.273-0.766-2.369-1.426-3.264-1.296c-0.674,0.1-1.85,0.733-3.705,1.766c-1.336,0.742-2.852,1.587-3.513,1.737
			c-0.286,0.064-0.454,0.313-0.378,0.554c0.066,0.203,0.281,0.336,0.518,0.336c0.046,0,0.093-0.006,0.139-0.018
			c0.826-0.186,2.281-0.996,3.824-1.854c1.244-0.692,2.793-1.556,3.295-1.628c0.455-0.066,1.568,0.602,2.461,1.139
			c0.944,0.568,1.918,1.154,2.814,1.406c0.281,0.079,0.584-0.049,0.677-0.287C502.426,417.469,502.271,417.213,501.99,417.133"/>
		<path clip-path="url(#SVGID_117_)" fill="#93278F" d="M500.648,419.35c-0.429-0.133-1.131-0.499-1.811-0.853
			c-1.435-0.748-2.346-1.202-2.998-1.107c-0.663,0.098-2.056,0.895-4.391,2.333c-0.281,0.179-0.531,0.329-0.701,0.433
			c-0.242,0.145-0.301,0.428-0.131,0.629c0.105,0.125,0.27,0.192,0.438,0.192c0.108,0,0.216-0.026,0.308-0.081
			c0.18-0.108,0.428-0.262,0.721-0.44c0.929-0.571,3.396-2.095,3.931-2.173c0.335-0.019,1.542,0.609,2.261,0.982
			c0.758,0.398,1.475,0.771,2.012,0.934c0.277,0.088,0.585-0.034,0.684-0.27C501.072,419.692,500.928,419.433,500.648,419.35"/>
		<path clip-path="url(#SVGID_117_)" fill="#93278F" d="M498.838,421.597c-0.299-0.164-0.575-0.333-0.842-0.493
			c-0.877-0.531-1.639-0.987-2.471-0.866c-0.936,0.137-2.43,1.404-2.718,1.656c-0.205,0.18-0.202,0.468,0.013,0.641
			c0.102,0.084,0.236,0.127,0.37,0.127c0.138,0,0.282-0.047,0.384-0.138c0.721-0.625,1.74-1.335,2.133-1.394
			c0.392-0.059,0.983,0.297,1.665,0.71c0.265,0.159,0.563,0.339,0.882,0.515c0.248,0.137,0.58,0.078,0.742-0.133
			C499.156,422.013,499.089,421.733,498.838,421.597"/>
		<path clip-path="url(#SVGID_117_)" fill="#93278F" d="M502.516,414.622c-0.404-0.105-0.709-0.238-1.136-0.451
			c-0.246-0.123-0.485-0.266-0.709-0.424h-1.464c0.754,0.823,1.85,1.439,3.022,1.745
			C502.893,415.666,503.174,414.793,502.516,414.622"/>
		<path clip-path="url(#SVGID_117_)" fill="#93278F" d="M504.7,408.688h-19.688v4.362H504.7V408.688z M503.852,412.335h-17.992
			v-2.931h17.992V412.335z"/>
		<polygon clip-path="url(#SVGID_117_)" fill="#93278F" points="488.512,411.571 489.063,411.866 489.39,411.263 489.693,411.856 
			490.288,411.569 489.813,411.067 490.549,411.144 490.549,410.589 489.808,410.671 490.281,410.148 489.705,409.87 
			489.401,410.466 489.09,409.878 488.51,410.157 488.975,410.668 488.258,410.589 488.258,411.144 488.979,411.065 		"/>
		<polygon clip-path="url(#SVGID_117_)" fill="#93278F" points="492.146,411.571 492.697,411.866 493.025,411.263 493.328,411.856 
			493.924,411.569 493.447,411.067 494.184,411.144 494.184,410.589 493.441,410.671 493.914,410.148 493.339,409.87 
			493.035,410.466 492.724,409.878 492.145,410.157 492.609,410.668 491.892,410.589 491.892,411.144 492.613,411.065 		"/>
		<polygon clip-path="url(#SVGID_117_)" fill="#93278F" points="495.783,411.571 496.331,411.866 496.66,411.263 496.961,411.856 
			497.558,411.569 497.081,411.067 497.817,411.144 497.817,410.589 497.076,410.671 497.549,410.148 496.977,409.87 
			496.668,410.466 496.357,409.878 495.777,410.157 496.244,410.668 495.527,410.589 495.527,411.144 496.248,411.065 		"/>
		<polygon clip-path="url(#SVGID_117_)" fill="#93278F" points="499.417,411.571 499.965,411.866 500.295,411.263 500.599,411.856 
			501.191,411.569 500.718,411.067 501.451,411.144 501.451,410.589 500.711,410.671 501.186,410.148 500.606,409.87 
			500.301,410.466 499.992,409.878 499.413,410.157 499.879,410.668 499.162,410.589 499.162,411.144 499.883,411.065 		"/>
		<path clip-path="url(#SVGID_117_)" fill="#93278F" d="M506.736,390.469h-24.174c-1.602,0-2.908,1.061-2.908,2.364v39.5
			c0,1.305,1.305,2.365,2.908,2.365h24.174c1.604,0,2.91-1.061,2.91-2.365v-39.5C509.646,391.529,508.34,390.469,506.736,390.469
			 M494.65,432.222c-0.897,0-1.627-0.615-1.627-1.372c0-0.755,0.729-1.372,1.627-1.372c0.898,0,1.626,0.617,1.626,1.372
			C496.276,431.606,495.549,432.222,494.65,432.222 M507.659,427.085h-26.015v-29.596h26.015V427.085z"/>
		<path clip-path="url(#SVGID_117_)" fill="#1B1464" d="M414.397,404.618c-0.016-0.027-0.035-0.055-0.056-0.08
			c-5.87-6.765-13.673-10.491-21.973-10.491c-8.3,0-16.103,3.726-21.971,10.49c-0.092,0.104-0.145,0.247-0.145,0.397
			c0,0.148,0.052,0.29,0.143,0.396l3.212,3.703c0.092,0.104,0.215,0.163,0.343,0.163c0.129,0,0.253-0.059,0.343-0.163
			c4.836-5.573,11.254-8.644,18.075-8.644c6.819,0,13.237,3.07,18.073,8.644c0.09,0.104,0.214,0.163,0.342,0.163
			c0.129,0,0.252-0.059,0.344-0.163l3.213-3.703c0.09-0.105,0.142-0.247,0.142-0.396
			C414.483,404.821,414.453,404.712,414.397,404.618"/>
		<path clip-path="url(#SVGID_117_)" fill="#1B1464" d="M392.369,403.842c-6.023,0-11.689,2.71-15.958,7.631
			c-0.189,0.219-0.189,0.573,0,0.79l3.202,3.693c0.092,0.105,0.214,0.162,0.344,0.162c0.128,0,0.252-0.058,0.342-0.162
			c3.229-3.723,7.515-5.772,12.069-5.772c4.553,0,8.84,2.05,12.068,5.772c0.09,0.105,0.214,0.162,0.342,0.162
			c0.129,0,0.252-0.058,0.343-0.162l3.203-3.693c0.091-0.104,0.143-0.246,0.143-0.395s-0.052-0.29-0.143-0.396
			C404.055,406.552,398.389,403.842,392.369,403.842"/>
		<path clip-path="url(#SVGID_117_)" fill="#1B1464" d="M392.369,413.636c-3.756,0-7.291,1.69-9.952,4.76
			c-0.092,0.105-0.143,0.246-0.143,0.396c0,0.148,0.051,0.29,0.143,0.396l3.202,3.691c0.091,0.105,0.214,0.164,0.343,0.164
			c0.129,0,0.252-0.059,0.344-0.164c1.622-1.87,3.775-2.898,6.063-2.898c2.287,0,4.44,1.029,6.062,2.898
			c0.092,0.105,0.214,0.164,0.344,0.164c0.129,0,0.252-0.059,0.344-0.164l3.202-3.691c0.189-0.219,0.189-0.572,0-0.791
			C399.658,415.326,396.124,413.636,392.369,413.636"/>
		<path clip-path="url(#SVGID_117_)" fill="#1B1464" d="M392.369,424.015c-1.313,0-2.546,0.588-3.473,1.658
			c-0.189,0.219-0.189,0.572,0,0.791l3.129,3.606c0.092,0.105,0.214,0.163,0.344,0.163c0.128,0,0.252-0.059,0.342-0.163l3.128-3.606
			c0.191-0.219,0.191-0.572,0-0.791C394.914,424.603,393.681,424.015,392.369,424.015"/>
	</g>
	<g clip-path="url(#SVGID_2_)">
		<defs>
			<path id="SVGID_118_" d="M501.983,458.248c-0.422-0.159-0.876-0.239-1.328-0.239c-0.454,0-0.908,0.08-1.33,0.239l-1.44-1.209
				c0.38-0.707,0.38-1.521,0-2.229l1.44-1.207c0.843,0.319,1.813,0.319,2.657,0l1.441,1.208c-0.382,0.708-0.382,1.522,0,2.23
				L501.983,458.248 M504.04,467.388c0.63,0.529,1.457,0.793,2.285,0.793c0.826,0,1.652-0.264,2.283-0.793
				c1.262-1.059,1.262-2.774,0-3.833c-0.978-0.819-2.424-1.001-3.613-0.551l-1.398-1.173c0.381-0.708,0.381-1.522,0-2.229
				l1.439-1.208c1.19,0.451,2.637,0.269,3.613-0.552c1.262-1.058,1.262-2.774,0-3.832c-0.977-0.819-2.423-1.003-3.613-0.552
				l-1.441-1.209c0.382-0.707,0.382-1.521,0-2.229l1.374-1.152c1.189,0.45,2.636,0.269,3.613-0.551c1.262-1.06,1.262-2.774,0-3.833
				c-1.261-1.059-3.307-1.059-4.569,0c-0.978,0.819-1.194,2.033-0.656,3.03l-1.374,1.152c-1.189-0.45-2.636-0.269-3.613,0.552
				c-0.978,0.819-1.194,2.034-0.658,3.03l-1.438,1.209c-0.845-0.32-1.814-0.32-2.658,0l-1.489-1.25
				c0.536-0.998,0.32-2.211-0.657-3.031s-2.425-1.002-3.614-0.551l-1.44-1.209c0.537-0.998,0.319-2.211-0.658-3.031
				c-1.261-1.058-3.307-1.058-4.568,0c-1.261,1.059-1.261,2.774,0,3.833c0.977,0.819,2.424,1.001,3.613,0.551l1.44,1.209
				c-0.536,0.997-0.318,2.211,0.657,3.031c0.978,0.819,2.425,1.001,3.614,0.551L492,454.81c-0.379,0.707-0.379,1.522,0,2.229
				l-1.372,1.152c-1.19-0.45-2.637-0.269-3.615,0.552c-1.26,1.059-1.26,2.774,0,3.832c1.263,1.059,3.309,1.059,4.571,0
				c0.977-0.819,1.193-2.032,0.656-3.03l1.372-1.152c0.846,0.319,1.815,0.319,2.66,0l1.44,1.209c-0.536,0.997-0.32,2.211,0.657,3.03
				c0.978,0.82,2.425,1.002,3.613,0.552l1.399,1.173C502.845,465.354,503.062,466.567,504.04,467.388"/>
		</defs>
		<clipPath id="SVGID_119_">
			<use xlink:href="#SVGID_118_"  overflow="visible"/>
		</clipPath>
		
			<linearGradient id="SVGID_120_" gradientUnits="userSpaceOnUse" x1="-0.813" y1="794.8301" x2="0.4666" y2="794.8301" gradientTransform="matrix(22.9346 0 0 24.6237 498.875 -19115.8809)">
			<stop  offset="0" style="stop-color:#27B6CE"/>
			<stop  offset="1" style="stop-color:#6283CE"/>
		</linearGradient>
		<rect x="479.926" y="443.328" clip-path="url(#SVGID_119_)" fill="url(#SVGID_120_)" width="29.985" height="24.853"/>
	</g>
	<g clip-path="url(#SVGID_2_)">
		<defs>
			<path id="SVGID_121_" d="M451.788,459.166c-0.421-0.159-0.875-0.239-1.329-0.239c-0.453,0-0.907,0.08-1.328,0.239l-1.441-1.208
				c0.381-0.707,0.381-1.522,0-2.229l1.438-1.208c0.846,0.32,1.815,0.32,2.659,0l1.441,1.209c-0.382,0.707-0.382,1.521,0,2.229
				L451.788,459.166 M453.845,468.306c0.631,0.529,1.457,0.794,2.283,0.794c0.828,0,1.655-0.265,2.285-0.794
				c1.263-1.058,1.263-2.774,0-3.833c-0.978-0.819-2.424-1.001-3.613-0.55l-1.399-1.174c0.382-0.707,0.382-1.522,0-2.229l1.44-1.208
				c1.189,0.45,2.636,0.269,3.613-0.551c1.263-1.059,1.263-2.774,0-3.833c-0.978-0.819-2.424-1.002-3.613-0.552l-1.44-1.208
				c0.38-0.708,0.38-1.522,0-2.229l1.373-1.152c1.189,0.451,2.636,0.269,3.613-0.551c1.262-1.059,1.262-2.774,0-3.833
				c-1.261-1.058-3.308-1.058-4.568,0c-0.978,0.819-1.195,2.033-0.657,3.031l-1.374,1.152c-1.188-0.451-2.637-0.269-3.614,0.551
				s-1.193,2.034-0.657,3.031l-1.438,1.208c-0.844-0.319-1.815-0.319-2.659,0l-1.488-1.25c0.536-0.998,0.32-2.211-0.657-3.031
				c-0.978-0.819-2.424-1.001-3.614-0.551l-1.439-1.208c0.536-0.998,0.319-2.212-0.658-3.032c-1.262-1.058-3.308-1.058-4.569,0
				c-1.262,1.059-1.262,2.775,0,3.834c0.978,0.819,2.424,1.001,3.613,0.551l1.441,1.208c-0.537,0.997-0.32,2.212,0.657,3.031
				c0.977,0.82,2.424,1.001,3.612,0.551l1.49,1.25c-0.38,0.707-0.38,1.522,0,2.229l-1.374,1.152
				c-1.188-0.45-2.636-0.269-3.613,0.551c-1.261,1.059-1.261,2.775,0,3.833c1.263,1.058,3.308,1.058,4.57,0
				c0.978-0.819,1.193-2.033,0.657-3.031l1.372-1.152c0.844,0.319,1.815,0.319,2.659,0l1.439,1.208
				c-0.536,0.998-0.319,2.213,0.658,3.031c0.978,0.82,2.425,1.002,3.613,0.553l1.398,1.172
				C452.65,466.272,452.865,467.485,453.845,468.306"/>
		</defs>
		<clipPath id="SVGID_122_">
			<use xlink:href="#SVGID_121_"  overflow="visible"/>
		</clipPath>
		
			<linearGradient id="SVGID_123_" gradientUnits="userSpaceOnUse" x1="-1.291" y1="794.8301" x2="-0.0109" y2="794.8301" gradientTransform="matrix(22.9346 0 0 24.6237 459.6406 -19114.9746)">
			<stop  offset="0" style="stop-color:#27B6CE"/>
			<stop  offset="1" style="stop-color:#6283CE"/>
		</linearGradient>
		<rect x="429.729" y="444.246" clip-path="url(#SVGID_122_)" fill="url(#SVGID_123_)" width="29.987" height="24.854"/>
	</g>
	<g clip-path="url(#SVGID_2_)">
		<defs>
			<path id="SVGID_124_" d="M469.616,461.64c0.922,0.066,1.839-0.203,2.509-0.738l1.834,0.739c-0.078,0.773,0.241,1.542,0.882,2.104
				l-0.884,1.54c-0.922-0.067-1.838,0.202-2.508,0.738l-1.835-0.74c0.08-0.773-0.241-1.542-0.88-2.104L469.616,461.64z
				 M461.525,473.553c0.45,0.183,0.928,0.269,1.397,0.269c1.203,0,2.357-0.566,2.915-1.537c0.598-1.045,0.322-2.25-0.577-3.043
				l0.857-1.495c0.921,0.067,1.837-0.203,2.507-0.738l1.835,0.739c-0.112,1.092,0.57,2.176,1.816,2.678
				c1.609,0.649,3.54,0.081,4.313-1.269c0.599-1.045,0.324-2.25-0.576-3.042l0.883-1.541c0.921,0.067,1.839-0.202,2.509-0.738
				l1.751,0.706c-0.113,1.09,0.57,2.175,1.815,2.678c1.608,0.648,3.539,0.08,4.312-1.269c0.773-1.349,0.096-2.969-1.512-3.617
				c-1.246-0.502-2.683-0.271-3.628,0.483l-1.751-0.706c0.113-1.09-0.571-2.176-1.816-2.678c-1.246-0.502-2.683-0.271-3.627,0.483
				l-1.835-0.739c0.08-0.773-0.241-1.543-0.881-2.104l0.913-1.593c1.3,0.095,2.594-0.479,3.192-1.523s0.325-2.251-0.576-3.043
				l0.881-1.54c1.302,0.095,2.596-0.479,3.194-1.523c0.772-1.35,0.096-2.969-1.513-3.617s-3.539-0.08-4.313,1.27
				c-0.599,1.044-0.324,2.249,0.576,3.042l-0.883,1.54c-1.3-0.094-2.594,0.479-3.192,1.523c-0.598,1.046-0.325,2.251,0.576,3.043
				l-0.911,1.593c-0.922-0.067-1.84,0.202-2.51,0.737l-1.75-0.705c0.112-1.09-0.57-2.176-1.816-2.678
				c-1.608-0.648-3.538-0.08-4.313,1.27c-0.773,1.348-0.095,2.968,1.514,3.615c1.246,0.502,2.683,0.272,3.628-0.483l1.75,0.706
				c-0.08,0.773,0.241,1.543,0.88,2.104l-0.883,1.54c-1.3-0.094-2.594,0.479-3.192,1.523s-0.323,2.251,0.576,3.043l-0.856,1.495
				c-1.3-0.095-2.594,0.479-3.192,1.523C459.24,471.285,459.917,472.904,461.525,473.553"/>
		</defs>
		<clipPath id="SVGID_125_">
			<use xlink:href="#SVGID_124_"  overflow="visible"/>
		</clipPath>
		
			<linearGradient id="SVGID_126_" gradientUnits="userSpaceOnUse" x1="-5.2354" y1="799.0176" x2="-4.1256" y2="799.0176" gradientTransform="matrix(7.5922 23.2354 -21.6415 8.1513 17800.7617 -5946.3833)">
			<stop  offset="0" style="stop-color:#27B6CE"/>
			<stop  offset="1" style="stop-color:#6283CE"/>
		</linearGradient>
		<polygon clip-path="url(#SVGID_125_)" fill="url(#SVGID_126_)" points="447.756,446.898 462.198,481.43 499.315,470.508 
			484.873,435.977 		"/>
	</g>
</g>
</svg>
