<?xml version="1.0" encoding="utf-8"?>
<!-- Generator: Adobe Illustrator 19.2.0, SVG Export Plug-In . SVG Version: 6.00 Build 0)  -->
<svg version="1.1" id="Layer_1" xmlns="http://www.w3.org/2000/svg" xmlns:xlink="http://www.w3.org/1999/xlink" x="0px" y="0px"
	 viewBox="0 0 960 800" enable-background="new 0 0 960 800" xml:space="preserve">
<g>
	<g>
		<g>
			<g>
				<g>
					<g>
						
							<linearGradient id="SVGID_1_" gradientUnits="userSpaceOnUse" x1="73.2138" y1="-452.7546" x2="600.3851" y2="-257.6623" gradientTransform="matrix(-0.2956 0.9553 -0.9553 -0.2956 184.7084 -57.3497)">
							<stop  offset="0" style="stop-color:#93FFFF"/>
							<stop  offset="1" style="stop-color:#005EA1"/>
						</linearGradient>
						<path fill="url(#SVGID_1_)" d="M667.3,244.9C619.8,175,538.6,132.2,459.8,131.4c-4.3,39.6-8.7,79.2-13,118.8
							c39,0.4,79.1,21.5,102.8,56C588.9,285.7,628.1,265.3,667.3,244.9z"/>
						
							<linearGradient id="SVGID_2_" gradientUnits="userSpaceOnUse" x1="226.0421" y1="-806.6624" x2="643.205" y2="382.5647" gradientTransform="matrix(-0.2956 0.9553 -0.9553 -0.2956 184.7084 -57.3497)">
							<stop  offset="0" style="stop-color:#FF0698"/>
							<stop  offset="0.543" style="stop-color:#00A3CE"/>
							<stop  offset="1" style="stop-color:#FFD912"/>
						</linearGradient>
						<path fill="url(#SVGID_2_)" d="M681.1,538.3c44.2-84.9,43.2-188.5,2-267.1c-41.8,15.9-83.7,31.9-125.5,47.8
							c20.6,38.7,21.5,89.6,0.2,131.5C598.9,479.8,640,509.1,681.1,538.3z"/>
						
							<linearGradient id="SVGID_3_" gradientUnits="userSpaceOnUse" x1="-79.5603" y1="-368.2091" x2="653.4954" y2="-535.4672" gradientTransform="matrix(-0.2956 0.9553 -0.9553 -0.2956 184.7084 -57.3497)">
							<stop  offset="0" style="stop-color:#FF0698"/>
							<stop  offset="0.543" style="stop-color:#00A3CE"/>
							<stop  offset="1" style="stop-color:#FFD912"/>
						</linearGradient>
						<path fill="url(#SVGID_3_)" d="M431.1,591.1c69.7-0.6,135.3-36.7,171-89.4c-23.9-21.6-47.9-43.2-71.9-64.8
							c-17.2,26-49.2,43.8-83,44.1C441.9,517.8,436.5,554.5,431.1,591.1z"/>
						
							<linearGradient id="SVGID_4_" gradientUnits="userSpaceOnUse" x1="161.7804" y1="-206.8741" x2="670.2815" y2="-648.9603" gradientTransform="matrix(-0.2956 0.9553 -0.9553 -0.2956 184.7084 -57.3497)">
							<stop  offset="0" style="stop-color:#FF0698"/>
							<stop  offset="0.543" style="stop-color:#00A3CE"/>
							<stop  offset="1" style="stop-color:#FFD912"/>
						</linearGradient>
						<path fill="url(#SVGID_4_)" d="M409.6,148.7c-50.7,24-90,63-111.7,106.7c50.3,37.1,100.6,74.2,150.8,111.3c2.5-0.6,5.5-1,9-1
							C441.7,293.4,425.7,221,409.6,148.7z"/>
						
							<linearGradient id="SVGID_5_" gradientUnits="userSpaceOnUse" x1="544.5634" y1="-179.432" x2="256.0669" y2="-389.0601" gradientTransform="matrix(-0.2956 0.9553 -0.9553 -0.2956 184.7084 -57.3497)">
							<stop  offset="0" style="stop-color:#FF1F1E"/>
							<stop  offset="1" style="stop-color:#FFD912"/>
						</linearGradient>
						<path fill="url(#SVGID_5_)" d="M277.6,337.9c-0.9,60.2,31.4,115.8,76.6,141.7c43.7-54.6,87.5-109.3,131.2-163.9
							c22.9,12.5,40.4,38.3,43.1,67.2C444.9,367.9,361.3,352.9,277.6,337.9z"/>
						
							<linearGradient id="SVGID_6_" gradientUnits="userSpaceOnUse" x1="399.808" y1="-470.8918" x2="395.6578" y2="-240.501" gradientTransform="matrix(-0.2956 0.9553 -0.9553 -0.2956 184.7084 -57.3497)">
							<stop  offset="0" style="stop-color:#FF1F1E"/>
							<stop  offset="1" style="stop-color:#FFD912"/>
						</linearGradient>
						<path fill="url(#SVGID_6_)" d="M402,496.2c30.9,4.5,62.5-2.5,87.1-18.3c-15.9-36.3-31.8-72.6-47.8-108.9
							c0.1,0.5,0.2,1.1,0.2,1.1C428.4,412.1,415.2,454.2,402,496.2z"/>
						
							<linearGradient id="SVGID_7_" gradientUnits="userSpaceOnUse" x1="327.703" y1="-556.8327" x2="284.1187" y2="9.7634" gradientTransform="matrix(-0.2956 0.9553 -0.9553 -0.2956 184.7084 -57.3497)">
							<stop  offset="0" style="stop-color:#FF0698"/>
							<stop  offset="0.543" style="stop-color:#00A3CE"/>
							<stop  offset="1" style="stop-color:#FFD912"/>
						</linearGradient>
						<path fill="url(#SVGID_7_)" d="M526.6,439.7c20.8-34.3,21.3-78.6,3.4-111.2c-45.5,17.9-91.1,35.7-136.6,53.6
							c-7.2-14.8-5.6-35,5.2-50.2C441.2,367.9,483.9,403.8,526.6,439.7z"/>
						
							<linearGradient id="SVGID_8_" gradientUnits="userSpaceOnUse" x1="155.4952" y1="-390.1757" x2="454.3605" y2="-327.912" gradientTransform="matrix(-0.2956 0.9553 -0.9553 -0.2956 184.7084 -57.3497)">
							<stop  offset="0" style="stop-color:#FF218B"/>
							<stop  offset="1" style="stop-color:#000049"/>
						</linearGradient>
						<path fill="url(#SVGID_8_)" d="M502.1,296c-20.1-15.3-45.6-22.3-69.4-19.7c0.5,31.4,1,62.8,1.5,94.2c-1.1,0.3-2.4-0.1-3.2-0.9
							C454.7,345.1,478.4,320.5,502.1,296z"/>
						
							<linearGradient id="SVGID_9_" gradientUnits="userSpaceOnUse" x1="664.3865" y1="-362.1301" x2="147.5737" y2="-322.6938" gradientTransform="matrix(-0.2956 0.9553 -0.9553 -0.2956 184.7084 -57.3497)">
							<stop  offset="0" style="stop-color:#FF218B"/>
							<stop  offset="1" style="stop-color:#000049"/>
						</linearGradient>
						<path fill="url(#SVGID_9_)" d="M382.5,441.3c12.6,6.9,26.7,10.7,40.7,11c-4.1,31.6-8.1,63.2-12.2,94.8
							c-29.3-0.7-58.9-8.6-85.5-23C344.4,496.4,363.4,468.9,382.5,441.3z"/>
						
							<linearGradient id="SVGID_10_" gradientUnits="userSpaceOnUse" x1="69.3798" y1="-568.502" x2="246.811" y2="-568.502" gradientTransform="matrix(-0.6575 0.7535 -0.7535 -0.6575 233.8799 -55.4612)">
							<stop  offset="0" style="stop-color:#FF1F1E"/>
							<stop  offset="1" style="stop-color:#FFD912"/>
						</linearGradient>
						<path fill="url(#SVGID_10_)" d="M471.9,399.8c20.7-21.6,36-47.3,44.7-74.1c52.5,31.7,105,63.3,157.5,95
							c-19.1,55.2-51.8,107.9-95.8,151.9C542.8,515.1,507.4,457.5,471.9,399.8z"/>
						
							<linearGradient id="SVGID_11_" gradientUnits="userSpaceOnUse" x1="512.5704" y1="-150.6959" x2="130.6748" y2="-559.5774" gradientTransform="matrix(-0.2956 0.9553 -0.9553 -0.2956 184.7084 -57.3497)">
							<stop  offset="0" style="stop-color:#FF0698"/>
							<stop  offset="0.543" style="stop-color:#00A3CE"/>
							<stop  offset="1" style="stop-color:#FFD912"/>
						</linearGradient>
						<path fill="url(#SVGID_11_)" d="M334.3,371.7c3.6,22.5,15,43.1,31,57.5c-25.4,23.1-50.7,46.3-76.1,69.4
							c-33.8-30-58-73-66.1-120.1C260.2,376.2,297.3,374,334.3,371.7z"/>
						
							<linearGradient id="SVGID_12_" gradientUnits="userSpaceOnUse" x1="74.2761" y1="-690.395" x2="455.3245" y2="-43.5446" gradientTransform="matrix(-0.3435 0.9392 -0.9392 -0.3435 187.3901 -59.059)">
							<stop  offset="0" style="stop-color:#FF218B"/>
							<stop  offset="1" style="stop-color:#000049"/>
						</linearGradient>
						<path fill="url(#SVGID_12_)" d="M595.5,352c-7.1-33.1-24.7-62.6-48.3-83.3c36.9-29.3,73.7-58.6,110.6-87.9
							c48,42.8,83.5,104,97.1,172.3C701.8,352.7,648.7,352.4,595.5,352z"/>
						
							<linearGradient id="SVGID_13_" gradientUnits="userSpaceOnUse" x1="263.7595" y1="-208.286" x2="379.1093" y2="-208.286" gradientTransform="matrix(-0.2956 0.9553 -0.9553 -0.2956 184.7084 -57.3497)">
							<stop  offset="0" style="stop-color:#93FFFF"/>
							<stop  offset="1" style="stop-color:#005EA1"/>
						</linearGradient>
						<path fill="url(#SVGID_13_)" d="M346.4,302.8c-9.5,17.7-14.1,37.5-13.3,56.6c-34.4-2-68.7-4-103.1-5.9
							c-2-38,6.6-77.5,25.1-113C285.5,261.3,316,282.1,346.4,302.8z"/>
						
							<linearGradient id="SVGID_14_" gradientUnits="userSpaceOnUse" x1="8.832091e-002" y1="-435.9566" x2="680.8405" y2="-413.1275" gradientTransform="matrix(-0.2956 0.9553 -0.9553 -0.2956 184.7084 -57.3497)">
							<stop  offset="0" style="stop-color:#FF0698"/>
							<stop  offset="0.543" style="stop-color:#00A3CE"/>
							<stop  offset="1" style="stop-color:#FFD912"/>
						</linearGradient>
						<path fill="url(#SVGID_14_)" d="M535.3,258.1c-14-8.1-29-13.9-44.2-17.2c15.9-41.5,31.8-83,47.7-124.6
							c29.8,6.4,59.2,17.8,86.5,33.8C595.3,186.1,565.3,222.1,535.3,258.1z"/>
						
							<linearGradient id="SVGID_15_" gradientUnits="userSpaceOnUse" x1="107.9912" y1="-368.5677" x2="270.2143" y2="-144.2774" gradientTransform="matrix(-0.2956 0.9553 -0.9553 -0.2956 184.7084 -57.3497)">
							<stop  offset="0" style="stop-color:#FF1F1E"/>
							<stop  offset="1" style="stop-color:#FFD912"/>
						</linearGradient>
						<path fill="url(#SVGID_15_)" d="M463.2,241.6c-31.2-2.1-61.6,12.2-78.2,34.7c-31.6-28.9-63.2-57.9-94.9-86.9
							c42.9-60.1,122.6-98.7,204.5-93.4C484.2,144.6,473.7,193.1,463.2,241.6z"/>
					</g>
					<g>
						
							<linearGradient id="SVGID_16_" gradientUnits="userSpaceOnUse" x1="-33.6231" y1="367.4276" x2="330.6118" y2="502.2214" gradientTransform="matrix(0.8845 -0.4665 0.4665 0.8845 109.527 40.7783)">
							<stop  offset="0" style="stop-color:#93FFFF"/>
							<stop  offset="1" style="stop-color:#005EA1"/>
						</linearGradient>
						<path fill="url(#SVGID_16_)" d="M264.2,298.3c-10.9,57.4,7.8,118,45.9,156.8c21.5-17.2,42.9-34.4,64.4-51.7
							c-18.8-19.3-28.1-49.2-22.9-77.6C322.5,316.7,293.3,307.5,264.2,298.3z"/>
						
							<linearGradient id="SVGID_17_" gradientUnits="userSpaceOnUse" x1="71.9729" y1="122.9092" x2="360.2003" y2="944.5735" gradientTransform="matrix(0.8845 -0.4665 0.4665 0.8845 109.527 40.7783)">
							<stop  offset="0" style="stop-color:#FF0698"/>
							<stop  offset="0.543" style="stop-color:#00A3CE"/>
							<stop  offset="1" style="stop-color:#FFD912"/>
						</linearGradient>
						<path fill="url(#SVGID_17_)" d="M400.8,148.2c-63.1,19.9-113.2,71-131.5,129.5c28.2,12.7,56.5,25.3,84.7,38
							c8.8-28.9,33.3-54.3,64.2-64.4C412.4,216.9,406.6,182.6,400.8,148.2z"/>
						
							<linearGradient id="SVGID_18_" gradientUnits="userSpaceOnUse" x1="-307.0505" y1="451.5075" x2="497.419" y2="267.9553" gradientTransform="matrix(0.8845 -0.4665 0.4665 0.8845 109.527 40.7783)">
							<stop  offset="0" style="stop-color:#FF0698"/>
							<stop  offset="0.543" style="stop-color:#00A3CE"/>
							<stop  offset="1" style="stop-color:#FFD912"/>
						</linearGradient>
						<path fill="url(#SVGID_18_)" d="M626.3,205.6C571.7,152,492.8,129,424.2,142.3c1.8,35.3,3.6,70.7,5.5,106.1
							c33.5-6.8,72.1,4.2,98.7,30.2C561,254.2,593.6,229.9,626.3,205.6z"/>
						
							<linearGradient id="SVGID_19_" gradientUnits="userSpaceOnUse" x1="777.6769" y1="741.4375" x2="201.1956" y2="461.8004" gradientTransform="matrix(0.8845 -0.4665 0.4665 0.8845 109.527 40.7783)">
							<stop  offset="0" style="stop-color:#FF0698"/>
							<stop  offset="0.543" style="stop-color:#00A3CE"/>
							<stop  offset="1" style="stop-color:#FFD912"/>
						</linearGradient>
						<path fill="url(#SVGID_19_)" d="M690.5,473.3c25.9-88,6-183.3-45.4-247c-35.9,20.7-71.7,41.5-107.6,62.2
							c25,30.9,34.5,77.3,21.4,119.9C602.8,430.1,646.6,451.7,690.5,473.3z"/>
						
							<linearGradient id="SVGID_20_" gradientUnits="userSpaceOnUse" x1="27.5695" y1="537.31" x2="378.8954" y2="231.8704" gradientTransform="matrix(0.8845 -0.4665 0.4665 0.8845 109.527 40.7783)">
							<stop  offset="0" style="stop-color:#FF0698"/>
							<stop  offset="0.543" style="stop-color:#00A3CE"/>
							<stop  offset="1" style="stop-color:#FFD912"/>
						</linearGradient>
						<path fill="url(#SVGID_20_)" d="M343.1,471.2c36.5,13,74.8,13.2,106.7,2.4c-6.4-42.7-12.9-85.4-19.3-128
							c-1.5-0.9-3.2-2.2-4.9-3.9C398.2,384.8,370.7,428,343.1,471.2z"/>
						
							<linearGradient id="SVGID_21_" gradientUnits="userSpaceOnUse" x1="292.0421" y1="556.2783" x2="92.7125" y2="411.4409" gradientTransform="matrix(0.8845 -0.4665 0.4665 0.8845 109.527 40.7783)">
							<stop  offset="0" style="stop-color:#FF1F1E"/>
							<stop  offset="1" style="stop-color:#FFD912"/>
						</linearGradient>
						<path fill="url(#SVGID_21_)" d="M500.1,443.3c29.9-29,41.2-71.9,31.8-106.6c-48.1,5.3-96.1,10.6-144.2,16
							c-5.1-17.3-1-38.4,11.8-53.9C433,346.9,466.5,395.1,500.1,443.3z"/>
						
							<linearGradient id="SVGID_22_" gradientUnits="userSpaceOnUse" x1="192.0263" y1="354.9045" x2="189.1591" y2="514.0764" gradientTransform="matrix(0.8845 -0.4665 0.4665 0.8845 109.527 40.7783)">
							<stop  offset="0" style="stop-color:#FF1F1E"/>
							<stop  offset="1" style="stop-color:#FFD912"/>
						</linearGradient>
						<path fill="url(#SVGID_22_)" d="M516.6,305.1c-12.9-17.3-31.7-29.3-51.5-33.6c-10,25.5-19.9,51-29.9,76.5
							c0.2-0.3,0.5-0.6,0.5-0.6C462.7,333.3,489.7,319.2,516.6,305.1z"/>
						
							<linearGradient id="SVGID_23_" gradientUnits="userSpaceOnUse" x1="142.2106" y1="295.5207" x2="112.0969" y2="686.9981" gradientTransform="matrix(0.8845 -0.4665 0.4665 0.8845 109.527 40.7783)">
							<stop  offset="0" style="stop-color:#FF0698"/>
							<stop  offset="0.543" style="stop-color:#00A3CE"/>
							<stop  offset="1" style="stop-color:#FFD912"/>
						</linearGradient>
						<path fill="url(#SVGID_23_)" d="M428.2,271.9c-26.9,6.6-48.8,28-56,52.7c31,13.5,61.9,27,92.9,40.6c-3.7,10.8-14.4,19.8-27,22
							C434.8,348.7,431.5,310.3,428.2,271.9z"/>
						
							<linearGradient id="SVGID_24_" gradientUnits="userSpaceOnUse" x1="23.2244" y1="410.6679" x2="229.7199" y2="453.6878" gradientTransform="matrix(0.8845 -0.4665 0.4665 0.8845 109.527 40.7783)">
							<stop  offset="0" style="stop-color:#FF218B"/>
							<stop  offset="1" style="stop-color:#000049"/>
						</linearGradient>
						<path fill="url(#SVGID_24_)" d="M370,354c2.3,17.3,11.4,33.2,24.3,43.5c15.1-15.6,30.2-31.2,45.2-46.8c0.7,0.4,1.1,1.2,1.1,2
							C417,353.2,393.5,353.6,370,354z"/>
						
							<linearGradient id="SVGID_25_" gradientUnits="userSpaceOnUse" x1="374.8262" y1="430.0515" x2="17.757" y2="457.2983" gradientTransform="matrix(0.8845 -0.4665 0.4665 0.8845 109.527 40.7783)">
							<stop  offset="0" style="stop-color:#FF218B"/>
							<stop  offset="1" style="stop-color:#000049"/>
						</linearGradient>
						<path fill="url(#SVGID_25_)" d="M499.4,341.5c-2.8-9.5-7.9-18.3-14.5-25.2c17.4-13.4,34.8-26.9,52.2-40.3
							c14,14.6,24.6,33,30.5,53C544.9,333.2,522.1,337.3,499.4,341.5z"/>
						
							<linearGradient id="SVGID_26_" gradientUnits="userSpaceOnUse" x1="100.3958" y1="230.3924" x2="222.9892" y2="230.3924" gradientTransform="matrix(0.8845 -0.4665 0.4665 0.8845 109.527 40.7783)">
							<stop  offset="0" style="stop-color:#FF1F1E"/>
							<stop  offset="1" style="stop-color:#FFD912"/>
						</linearGradient>
						<path fill="url(#SVGID_26_)" d="M406.4,214.9c-18.7,8.8-34.9,21.5-47.2,36.7c-26-33.5-52-66.9-77.9-100.4
							c26-30.9,60.2-56.7,99.5-74.1C389.3,122.9,397.8,168.9,406.4,214.9z"/>
						
							<linearGradient id="SVGID_27_" gradientUnits="userSpaceOnUse" x1="481.8106" y1="254.8276" x2="116.1746" y2="381.5333" gradientTransform="matrix(0.8845 -0.4665 0.4665 0.8845 109.527 40.7783)">
							<stop  offset="0" style="stop-color:#93FFFF"/>
							<stop  offset="1" style="stop-color:#005EA1"/>
						</linearGradient>
						<path fill="url(#SVGID_27_)" d="M560.2,234.2c-29.8-25.9-68.1-37.6-102.5-34.4c7.6-42,15.1-84.1,22.7-126.1
							c72.5-5.3,153.1,20.9,216.3,76.6C651.1,178.3,605.7,206.3,560.2,234.2z"/>
						
							<linearGradient id="SVGID_28_" gradientUnits="userSpaceOnUse" x1="269.9366" y1="576.1312" x2="6.0778" y2="293.6273" gradientTransform="matrix(0.8845 -0.4665 0.4665 0.8845 109.527 40.7783)">
							<stop  offset="0" style="stop-color:#FF0698"/>
							<stop  offset="0.543" style="stop-color:#00A3CE"/>
							<stop  offset="1" style="stop-color:#FFD912"/>
						</linearGradient>
						<path fill="url(#SVGID_28_)" d="M488.9,399c9.2-12.8,13.7-28.4,12.9-43.2c23.7,1.1,47.4,2.2,71.1,3.2c1.9,31.2-7.3,64-26.4,91
							C527.3,433,508.1,416,488.9,399z"/>
						
							<linearGradient id="SVGID_29_" gradientUnits="userSpaceOnUse" x1="-27.8031" y1="184.2086" x2="266.171" y2="683.2457" gradientTransform="matrix(0.8845 -0.4665 0.4665 0.8845 109.527 40.7783)">
							<stop  offset="0" style="stop-color:#FF218B"/>
							<stop  offset="1" style="stop-color:#000049"/>
						</linearGradient>
						<path fill="url(#SVGID_29_)" d="M347.7,268.2c-13,22.6-18.2,48.6-15.4,72.6c-36.3-2.3-72.5-4.6-108.8-6.9
							c-5.4-49.3,6-102.7,33.5-148.8C287.2,212.8,317.4,240.5,347.7,268.2z"/>
						
							<linearGradient id="SVGID_30_" gradientUnits="userSpaceOnUse" x1="98.0216" y1="536.3411" x2="177.7202" y2="536.3411" gradientTransform="matrix(0.8845 -0.4665 0.4665 0.8845 109.527 40.7783)">
							<stop  offset="0" style="stop-color:#93FFFF"/>
							<stop  offset="1" style="stop-color:#005EA1"/>
						</linearGradient>
						<path fill="url(#SVGID_30_)" d="M449.4,426.8c13.3-4,25.2-11.5,34.1-21.2c15.8,17.8,31.6,35.5,47.5,53.3
							c-17.6,19.5-41.1,34.7-67.5,42.9C458.8,476.8,454.1,451.8,449.4,426.8z"/>
						
							<linearGradient id="SVGID_31_" gradientUnits="userSpaceOnUse" x1="-84.1479" y1="379.031" x2="386.2033" y2="394.8043" gradientTransform="matrix(0.8845 -0.4665 0.4665 0.8845 109.527 40.7783)">
							<stop  offset="0" style="stop-color:#FF0698"/>
							<stop  offset="0.543" style="stop-color:#00A3CE"/>
							<stop  offset="1" style="stop-color:#FFD912"/>
						</linearGradient>
						<path fill="url(#SVGID_31_)" d="M335.2,356.4c2.9,10.8,7.4,20.9,13.2,30c-28.1,12.5-56.1,25-84.2,37.6
							c-11.4-17.7-20.2-37.6-25.8-58.8C270.7,362.2,303,359.3,335.2,356.4z"/>
						
							<linearGradient id="SVGID_32_" gradientUnits="userSpaceOnUse" x1="-44.4229" y1="417.1794" x2="120.4883" y2="645.1862" gradientTransform="matrix(0.8845 -0.4665 0.4665 0.8845 109.527 40.7783)">
							<stop  offset="0" style="stop-color:#FF1F1E"/>
							<stop  offset="1" style="stop-color:#FFD912"/>
						</linearGradient>
						<path fill="url(#SVGID_32_)" d="M357.2,398.1c20.9,23.9,53.1,35.5,81.2,31.2c1.9,43.5,3.8,87.1,5.7,130.6
							C370.1,572.3,285,542.7,230,480.1C272.4,452.7,314.8,425.4,357.2,398.1z"/>
					</g>
					<g>
						<path opacity="0.8" fill="#FFFFFF" d="M629.2,255.1c46.4,88,12.7,197.1-75.3,243.5c-88.1,46.4-197.1,12.7-243.5-75.3
							c-46.4-88.1-12.7-197.1,75.3-243.5C473.8,133.3,582.8,167,629.2,255.1z"/>
						<path opacity="0.8" fill="#FFFFFF" d="M613.5,263.3c41.9,79.4,11.5,177.7-67.9,219.5C466.2,524.7,368,494.3,326.1,415
							c-41.9-79.4-11.5-177.7,67.9-219.5C473.4,153.5,571.7,184,613.5,263.3z"/>
					</g>
				</g>
			</g>
		</g>
		<g>
			<linearGradient id="SVGID_33_" gradientUnits="userSpaceOnUse" x1="487.5701" y1="245.5459" x2="556.2598" y2="245.5459">
				<stop  offset="0" style="stop-color:#27B6CE"/>
				<stop  offset="1" style="stop-color:#6283CE"/>
			</linearGradient>
			<path fill="url(#SVGID_33_)" d="M545.4,265.1l-3.2-3.2c0.9-2,0.9-4.2,0-6.2l3.4-3.4c2.8,1.3,6.2,0.7,8.5-1.5c3-3,3-7.7,0-10.7
				c-2.3-2.3-5.7-2.8-8.5-1.5l-3.4-3.4c0.9-2,0.9-4.2,0-6.2l3.3-3.3c2.8,1.3,6.2,0.7,8.5-1.5c3-3,3-7.7,0-10.7c-3-3-7.7-3-10.7,0
				c-2.3,2.3-2.8,5.7-1.5,8.5l-3.3,3.3c-2.8-1.3-6.2-0.7-8.5,1.5c-2.3,2.3-2.8,5.7-1.5,8.5l-3.4,3.4c-2-0.9-4.2-0.9-6.2,0l-3.2-3.2
				c1.3-2.8,0.7-6.2-1.5-8.5c-3-3-7.7-3-10.7,0c-3,3-3,7.7,0,10.7c2.3,2.3,5.7,2.8,8.5,1.5l3.2,3.2c-0.9,2-0.9,4.2,0,6.2l-3.5,3.5
				c-2.8-1.3-6.2-0.7-8.5,1.5c-2.3,2.3-2.8,5.7-1.5,8.5l-3.4,3.4c-2.8-1.3-6.2-0.7-8.5,1.5c-3,3-3,7.7,0,10.7c3,3,7.7,3,10.7,0
				c2.3-2.3,2.8-5.7,1.5-8.5l3.4-3.4c2.8,1.3,6.2,0.7,8.5-1.5c2.3-2.3,2.8-5.7,1.5-8.5l3.5-3.5c2,0.9,4.2,0.9,6.2,0l3.4,3.4
				c-1.3,2.8-0.7,6.2,1.5,8.5c2.3,2.3,5.7,2.8,8.5,1.5l3.2,3.2c-1.3,2.8-0.7,6.2,1.5,8.5c3,3,7.7,3,10.7,0c3-3,3-7.7,0-10.7
				C551.6,264.4,548.2,263.9,545.4,265.1z M532.2,251.9l-3.4-3.4c0.9-2,0.9-4.2,0-6.2l3.4-3.4c2,0.9,4.2,0.9,6.2,0l3.4,3.4
				c-0.9,2-0.9,4.2,0,6.2l-3.4,3.4C536.5,251,534.2,251,532.2,251.9z"/>
			<linearGradient id="SVGID_34_" gradientUnits="userSpaceOnUse" x1="370.1186" y1="242.9842" x2="438.8083" y2="242.9842">
				<stop  offset="0" style="stop-color:#27B6CE"/>
				<stop  offset="1" style="stop-color:#6283CE"/>
			</linearGradient>
			<path fill="url(#SVGID_34_)" d="M428,262.6l-3.2-3.2c0.9-2,0.9-4.2,0-6.2l3.4-3.4c2.8,1.3,6.2,0.7,8.5-1.5c3-3,3-7.7,0-10.7
				c-2.3-2.3-5.7-2.8-8.5-1.5l-3.4-3.4c0.9-2,0.9-4.2,0-6.2l3.3-3.3c2.8,1.3,6.2,0.7,8.5-1.5c3-3,3-7.7,0-10.7c-3-3-7.7-3-10.7,0
				c-2.3,2.3-2.8,5.7-1.5,8.5l-3.3,3.3c-2.8-1.3-6.2-0.7-8.5,1.5c-2.3,2.3-2.8,5.7-1.5,8.5l-3.4,3.4c-2-0.9-4.2-0.9-6.2,0l-3.2-3.2
				c1.3-2.8,0.7-6.2-1.5-8.5c-3-3-7.7-3-10.7,0c-3,3-3,7.7,0,10.7c2.3,2.3,5.7,2.8,8.5,1.5l3.2,3.2c-0.9,2-0.9,4.2,0,6.2l-3.5,3.5
				c-2.8-1.3-6.2-0.7-8.5,1.5c-2.3,2.3-2.8,5.7-1.5,8.5l-3.4,3.4c-2.8-1.3-6.2-0.7-8.5,1.5c-3,3-3,7.7,0,10.7c3,3,7.7,3,10.7,0
				c2.3-2.3,2.8-5.7,1.5-8.5l3.4-3.4c2.8,1.3,6.2,0.7,8.5-1.5c2.3-2.3,2.8-5.7,1.5-8.5l3.5-3.5c2,0.9,4.2,0.9,6.2,0l3.4,3.4
				c-1.3,2.8-0.7,6.2,1.5,8.5c2.3,2.3,5.7,2.8,8.5,1.5l3.2,3.2c-1.3,2.8-0.7,6.2,1.5,8.5c3,3,7.7,3,10.7,0c3-3,3-7.7,0-10.7
				C434.1,261.8,430.8,261.3,428,262.6z M414.8,249.4l-3.4-3.4c0.9-2,0.9-4.2,0-6.2l3.4-3.4c2,0.9,4.2,0.9,6.2,0l3.4,3.4
				c-0.9,2-0.9,4.2,0,6.2l-3.4,3.4C419,248.5,416.7,248.5,414.8,249.4z"/>
			
				<linearGradient id="SVGID_35_" gradientUnits="userSpaceOnUse" x1="1841.2877" y1="-1549.6327" x2="1909.9774" y2="-1549.6327" gradientTransform="matrix(0.331 -0.9436 0.9436 0.331 1304.8109 2519.9783)">
				<stop  offset="0" style="stop-color:#27B6CE"/>
				<stop  offset="1" style="stop-color:#6283CE"/>
			</linearGradient>
			<path fill="url(#SVGID_35_)" d="M489.7,221.4l-4.1,2c-1.6-1.5-3.7-2.2-5.9-2.1l-2.1-4.3c2.1-2.2,2.7-5.6,1.3-8.5
				c-1.8-3.8-6.3-5.3-10.1-3.5c-2.9,1.4-4.5,4.4-4.3,7.5l-4.3,2.1c-1.6-1.5-3.7-2.2-5.9-2.1l-2-4.2c2.1-2.2,2.7-5.6,1.3-8.5
				c-1.8-3.8-6.3-5.3-10.1-3.5c-3.8,1.8-5.3,6.3-3.5,10.1c1.4,2.9,4.4,4.5,7.5,4.3l2,4.2c-2.1,2.2-2.7,5.6-1.3,8.5
				c1.4,2.9,4.4,4.5,7.5,4.3l2.1,4.3c-1.5,1.6-2.2,3.7-2.1,5.9l-4.1,2c-2.2-2.1-5.6-2.7-8.5-1.3c-3.8,1.8-5.3,6.3-3.5,10.1
				c1.8,3.8,6.3,5.3,10.1,3.5c2.9-1.4,4.5-4.4,4.3-7.5l4.1-2c1.6,1.5,3.7,2.2,5.9,2.1l2.1,4.4c-2.1,2.2-2.7,5.6-1.3,8.5
				c1.4,2.9,4.4,4.5,7.5,4.3l2.1,4.3c-2.1,2.2-2.7,5.6-1.3,8.5c1.8,3.8,6.3,5.3,10.1,3.5c3.8-1.8,5.3-6.3,3.5-10.1
				c-1.4-2.9-4.4-4.5-7.5-4.3l-2.1-4.3c2.1-2.2,2.7-5.6,1.3-8.5c-1.4-2.9-4.4-4.5-7.5-4.3l-2.1-4.4c1.5-1.6,2.2-3.7,2.1-5.9l4.3-2.1
				c2.2,2.1,5.6,2.7,8.5,1.3c2.9-1.4,4.5-4.4,4.3-7.5l4.1-2c2.2,2.1,5.6,2.7,8.5,1.3c3.8-1.8,5.3-6.3,3.5-10.1
				c-1.8-3.8-6.3-5.3-10.1-3.5C491,215.3,489.4,218.4,489.7,221.4z M472.9,229.5l-4.3,2.1c-1.6-1.5-3.7-2.2-5.9-2.1l-2.1-4.3
				c1.5-1.6,2.2-3.7,2.1-5.9l4.3-2.1c1.6,1.5,3.7,2.2,5.9,2.1l2.1,4.3C473.4,225.2,472.7,227.3,472.9,229.5z"/>
		</g>
		<g>
			
				<linearGradient id="SVGID_36_" gradientUnits="userSpaceOnUse" x1="487.0151" y1="554.7711" x2="555.7048" y2="554.7711" gradientTransform="matrix(1 0 0 -1 0 984.4805)">
				<stop  offset="0" style="stop-color:#27B6CE"/>
				<stop  offset="1" style="stop-color:#6283CE"/>
			</linearGradient>
			<path fill="url(#SVGID_36_)" d="M553.3,408.6c3-3,3-7.7,0-10.7c-3-3-7.7-3-10.7,0c-2.3,2.3-2.8,5.7-1.5,8.5l-3.2,3.2
				c-2.8-1.3-6.2-0.7-8.5,1.5c-2.3,2.3-2.8,5.7-1.5,8.5l-3.4,3.4c-2-0.9-4.2-0.9-6.2,0l-3.5-3.5c1.3-2.8,0.7-6.2-1.5-8.5
				c-2.3-2.3-5.7-2.8-8.5-1.5l-3.4-3.4c1.3-2.8,0.7-6.2-1.5-8.5c-3-3-7.7-3-10.7,0c-3,3-3,7.7,0,10.7c2.3,2.3,5.7,2.8,8.5,1.5
				l3.4,3.4c-1.3,2.8-0.7,6.2,1.5,8.5c2.3,2.3,5.7,2.8,8.5,1.5l3.5,3.5c-0.9,2-0.9,4.2,0,6.2l-3.2,3.2c-2.8-1.3-6.2-0.7-8.5,1.5
				c-3,3-3,7.7,0,10.7c3,3,7.7,3,10.7,0c2.3-2.3,2.8-5.7,1.5-8.5l3.2-3.2c2,0.9,4.2,0.9,6.2,0l3.4,3.4c-1.3,2.8-0.7,6.2,1.5,8.5
				c2.3,2.3,5.7,2.8,8.5,1.5l3.3,3.3c-1.3,2.8-0.7,6.2,1.5,8.5c3,3,7.7,3,10.7,0c3-3,3-7.7,0-10.7c-2.3-2.3-5.7-2.8-8.5-1.5
				l-3.3-3.3c0.9-2,0.9-4.2,0-6.2l3.4-3.4c2.8,1.3,6.2,0.7,8.5-1.5c3-3,3-7.7,0-10.7c-2.3-2.3-5.7-2.8-8.5-1.5l-3.4-3.4
				c0.9-2,0.9-4.2,0-6.2l3.2-3.2C547.7,411.4,551,410.9,553.3,408.6z M537.9,423.3l3.4,3.4c-0.9,2-0.9,4.2,0,6.2l-3.4,3.4
				c-2-0.9-4.2-0.9-6.2,0l-3.4-3.4c0.9-2,0.9-4.2,0-6.2l3.4-3.4C533.6,424.2,535.9,424.2,537.9,423.3z"/>
			
				<linearGradient id="SVGID_37_" gradientUnits="userSpaceOnUse" x1="369.5636" y1="552.2094" x2="438.2533" y2="552.2094" gradientTransform="matrix(1 0 0 -1 0 984.4805)">
				<stop  offset="0" style="stop-color:#27B6CE"/>
				<stop  offset="1" style="stop-color:#6283CE"/>
			</linearGradient>
			<path fill="url(#SVGID_37_)" d="M435.9,411.2c3-3,3-7.7,0-10.7c-3-3-7.7-3-10.7,0c-2.3,2.3-2.8,5.7-1.5,8.5l-3.2,3.2
				c-2.8-1.3-6.2-0.7-8.5,1.5c-2.3,2.3-2.8,5.7-1.5,8.5l-3.4,3.4c-2-0.9-4.2-0.9-6.2,0l-3.5-3.5c1.3-2.8,0.7-6.2-1.5-8.5
				c-2.3-2.3-5.7-2.8-8.5-1.5l-3.4-3.4c1.3-2.8,0.7-6.2-1.5-8.5c-3-3-7.7-3-10.7,0c-3,3-3,7.7,0,10.7c2.3,2.3,5.7,2.8,8.5,1.5
				l3.4,3.4c-1.3,2.8-0.7,6.2,1.5,8.5c2.3,2.3,5.7,2.8,8.5,1.5l3.5,3.5c-0.9,2-0.9,4.2,0,6.2l-3.2,3.2c-2.8-1.3-6.2-0.7-8.5,1.5
				c-3,3-3,7.7,0,10.7c3,3,7.7,3,10.7,0c2.3-2.3,2.8-5.7,1.5-8.5l3.2-3.2c2,0.9,4.2,0.9,6.2,0l3.4,3.4c-1.3,2.8-0.7,6.2,1.5,8.5
				c2.3,2.3,5.7,2.8,8.5,1.5l3.3,3.3c-1.3,2.8-0.7,6.2,1.5,8.5c3,3,7.7,3,10.7,0c3-3,3-7.7,0-10.7c-2.3-2.3-5.7-2.8-8.5-1.5
				l-3.3-3.3c0.9-2,0.9-4.2,0-6.2l3.4-3.4c2.8,1.3,6.2,0.7,8.5-1.5c3-3,3-7.7,0-10.7c-2.3-2.3-5.7-2.8-8.5-1.5l-3.4-3.4
				c0.9-2,0.9-4.2,0-6.2l3.2-3.2C430.2,413.9,433.6,413.4,435.9,411.2z M420.4,425.9l3.4,3.4c-0.9,2-0.9,4.2,0,6.2l-3.4,3.4
				c-2-0.9-4.2-0.9-6.2,0l-3.4-3.4c0.9-2,0.9-4.2,0-6.2l3.4-3.4C416.2,426.8,418.5,426.8,420.4,425.9z"/>
			
				<linearGradient id="SVGID_38_" gradientUnits="userSpaceOnUse" x1="1549.3134" y1="-1447.7921" x2="1618.0031" y2="-1447.7921" gradientTransform="matrix(0.331 0.9436 0.9436 -0.331 1304.8109 -1535.4979)">
				<stop  offset="0" style="stop-color:#27B6CE"/>
				<stop  offset="1" style="stop-color:#6283CE"/>
			</linearGradient>
			<path fill="url(#SVGID_38_)" d="M493.4,461.3c3.8,1.8,8.3,0.2,10.1-3.5c1.8-3.8,0.2-8.3-3.5-10.1c-2.9-1.4-6.3-0.8-8.5,1.3
				l-4.1-2c0.3-3-1.3-6.1-4.3-7.5c-2.9-1.4-6.3-0.8-8.5,1.3l-4.3-2.1c0.2-2.2-0.6-4.3-2.1-5.9l2.1-4.4c3,0.3,6.1-1.3,7.5-4.3
				c1.4-2.9,0.8-6.3-1.3-8.5l2.1-4.3c3,0.3,6.1-1.3,7.5-4.3c1.8-3.8,0.2-8.3-3.5-10.1c-3.8-1.8-8.3-0.2-10.1,3.5
				c-1.4,2.9-0.8,6.3,1.3,8.5l-2.1,4.3c-3-0.3-6.1,1.3-7.5,4.3c-1.4,2.9-0.8,6.3,1.3,8.5l-2.1,4.4c-2.2-0.2-4.3,0.6-5.9,2.1l-4.1-2
				c0.3-3-1.3-6.1-4.3-7.5c-3.8-1.8-8.3-0.2-10.1,3.5c-1.8,3.8-0.2,8.3,3.5,10.1c2.9,1.4,6.3,0.8,8.5-1.3l4.1,2
				c-0.2,2.2,0.6,4.3,2.1,5.9l-2.1,4.3c-3-0.3-6.1,1.3-7.5,4.3c-1.4,2.9-0.8,6.3,1.3,8.5l-2,4.2c-3-0.3-6.1,1.3-7.5,4.3
				c-1.8,3.8-0.2,8.3,3.5,10.1c3.8,1.8,8.3,0.2,10.1-3.5c1.4-2.9,0.8-6.3-1.3-8.5l2-4.2c2.2,0.2,4.3-0.6,5.9-2.1l4.3,2.1
				c-0.3,3,1.3,6.1,4.3,7.5c3.8,1.8,8.3,0.2,10.1-3.5c1.4-2.9,0.8-6.3-1.3-8.5l2.1-4.3c2.2,0.2,4.3-0.6,5.9-2.1l4.1,2
				C488.9,456.9,490.5,459.9,493.4,461.3z M474.4,451.6l-2.1,4.3c-2.2-0.2-4.3,0.6-5.9,2.1l-4.3-2.1c0.2-2.2-0.6-4.3-2.1-5.9
				l2.1-4.3c2.2,0.2,4.3-0.6,5.9-2.1l4.3,2.1C472.1,447.9,472.9,450.1,474.4,451.6z"/>
		</g>
	</g>
	<g>
		<g>
			<path fill="#FFFFFF" d="M205.1,651h14.7c0,6.6,6.6,7.8,10,7.9c2.8,0,6.7-0.6,6.7-4c0-6.2-30.4-3.6-30.4-23.7
				c0-11.7,11.1-17,18.8-17c6.6,0,13.4,2.1,16.5,8.1l0.8-6.6h13.6v19.9h-14.3c0-5.9-4.6-9.2-10.1-9.2c-2.3,0-5.5,1.4-5.5,4.2
				c0,8.1,31.3,6.2,31.3,24.8c0,12.3-11.5,16.8-21,16.8c-8,0-13.5-3.7-16.5-7.3l-0.9,6.1h-13.8V651z"/>
			<path fill="#FFFFFF" d="M288.8,640.6c0.3-1.6,2.1-4.9,2.9-6.8l4.4-8h-4.4v-10.1H313v10.1h-4.3l-14.6,25.7v9.2h4.4V671h-25.3
				v-10.3h4.5v-9.3l-15.3-25.5h-3.9v-10.1h27.1v10.1h-4.1l4.6,8.4c0.5,1.5,2.1,5.1,2.5,6.4H288.8z"/>
			<path fill="#FFFFFF" d="M351,666c-1.7,2.9-6.6,5.7-12.7,5.7c-13.8,0-24.8-10.8-24.8-27.8c0-17.2,11.9-29.1,24.3-29.1
				c11.5,0,14.2,5.4,15.4,6.6l1.7-5.7h11.8V639h-14.2c-0.2-6.4-4.4-10-9-10c-6.4,0-10.8,7-10.8,14.9c0,8.1,4,14.6,10.8,14.6
				c4.5,0,6.4-1.8,7.6-3.9v-3.3h-4.8v-8.5h26.3v8.5h-3.2V671h-15.8L351,666z"/>
			<path fill="#FFFFFF" d="M430.5,629.6c-0.6,3.6-1.7,8.8-2.3,10.6l-8.3,30.8h-16.5l-8.9-31.6c-0.4-1.3-1.4-5.9-1.7-9.8h-0.3v31.2
				h4.5V671h-21.4v-10.2h4.3v-34.9h-4.2v-10.2h30l8,29.6l7.6-29.6h30.1v10.2H447v34.8h4.4V671h-25v-10.3h4.4v-26.4v-4.7H430.5z"/>
			<path fill="#FFFFFF" d="M485.5,671v-10.4h7.5l-1.7-5.4h-16.2l-1.7,5.4h6.2V671h-25.2v-10.4h5.4l10.7-34.7h-3.2v-10.2h30.4
				l14,44.9h5.5V671H485.5z M488.5,645.7l-5.2-17.1l-5.1,17.1H488.5z"/>
			<path fill="#FFFFFF" d="M540.8,624.6c5.5-6.4,12.7-9.8,20.6-9.8c10.5,0,18.8,6.6,18.8,17.3c0,9.1-4.3,12.3-12.7,17.7
				c-3.8,2.5-10,7.4-11.9,10.6h13.9v-6.3h13.3V671h-42.7v-11.5c4.4-7.1,6.5-9.4,11.5-13.4c5.6-5,14-8.3,14-13.2c0-4-3-5.2-6.6-5.2
				c-4.3,0-7.4,3.5-9.7,6L540.8,624.6z"/>
			<path fill="#FFFFFF" d="M586.1,643c0-16.8,9.2-28.4,22.3-28.4c15.5,0,22.7,11.5,22.7,28.9c0,17.6-8,28.3-22.3,28.3
				C595.6,671.9,586.1,662.5,586.1,643z M615.2,643.6c0-9.4-3-16.2-6.9-16.2c-2.9-0.1-6.6,6-6.6,15.7c0,10.2,3.9,16.6,7,16.6
				C612.4,659.7,615.2,653.3,615.2,643.6z"/>
			<path fill="#FFFFFF" d="M634.3,626c4.5-2.2,8.1-3.5,13.8-10.4h14.1v44.8h7.4V671h-31.6v-10.5h7.9v-29.3l-7.9,3.7L634.3,626z"/>
			<path fill="#FFFFFF" d="M709.3,631.3c-2.7-1.6-6.7-4-11.5-4c-5.9,0.2-9.6,4.9-10.4,10.8c2.1-2.1,6.2-3.9,10.4-4
				c10.1-0.4,18.5,6.9,18.5,17.6c0,10.6-7.6,19.6-20.5,20c-13,0.4-22.5-8.9-23-24.8c-0.2-10.5,2.5-31.5,23.3-32.1
				c5.3-0.2,14,2.3,18.7,6.2L709.3,631.3z M687.6,649.9c0,4,2.3,9.3,7.4,9.3c4,0,7.3-3,7.2-6.8c-0.1-3.1-1.7-7.1-6.4-7
				C692,645.6,688.8,648.3,687.6,649.9z"/>
		</g>
	</g>
	<g>
		<g>
			<path fill="#FFFFFF" d="M240.8,706.4c0,5.4-1.7,10.1-5.1,14.1c-3.4,4-8.2,6.1-14.2,6.1c-2,0-5.2-0.1-9.8-0.4
				c0.3-5.9,0.4-12.3,0.4-19.4c0-6.6-0.1-12.5-0.4-17.5h3.1c0.8,0,1.9,0,3.5-0.1c1.5-0.1,2.6-0.1,3.1-0.1c6.7,0,11.6,1.6,14.8,4.9
				C239.2,697.3,240.8,701.4,240.8,706.4z M235.8,707.7c0-4.2-1.3-7.7-4-10.5c-2.7-2.8-6.8-4.2-12.4-4.2c-0.8,0-1.9,0.1-3.3,0.3
				c0.2,4.4,0.2,8.9,0.2,13.6c0,5.1,0.1,10.3,0.3,15.5c1.5,0.3,3,0.5,4.4,0.5c5,0,8.7-1.5,11.1-4.4
				C234.6,715.4,235.8,711.8,235.8,707.7z"/>
			<path fill="#FFFFFF" d="M254.3,726.2h-5.4c0.3-6.1,0.4-12.6,0.4-19.4c0-6.7-0.1-12.5-0.4-17.5h5.4c-0.3,5.2-0.4,11-0.4,17.5
				C253.9,713.6,254,720.1,254.3,726.2z"/>
			<path fill="#FFFFFF" d="M291.8,725.4c-3.1,1-6.2,1.5-9.4,1.5c-6.6,0-11.6-1.8-15-5.3c-3.4-3.5-5.1-7.9-5.1-13.1
				c0-5.3,1.8-9.9,5.5-13.8c3.7-3.9,8.7-5.9,15.2-5.9c2.3,0,4.6,0.3,6.7,0.8l-0.7,4.7c-3.1-0.8-5.6-1.1-7.5-1.1
				c-4.6,0-8.1,1.4-10.5,4.1c-2.4,2.8-3.6,6.2-3.6,10.3c0,4.1,1.4,7.7,4.2,10.8c2.8,3.1,6.7,4.6,11.8,4.6c0.9,0,2.3-0.1,4.2-0.4
				c-0.3-2-0.5-4.2-0.5-6.9c0-2.2-0.1-4.3-0.4-6.4h5.2c-0.2,2.5-0.2,5.1-0.2,7.9C291.6,718.5,291.7,721.2,291.8,725.4z"/>
			<path fill="#FFFFFF" d="M306.3,726.2h-5.4c0.3-6.1,0.4-12.6,0.4-19.4c0-6.7-0.1-12.5-0.4-17.5h5.4c-0.3,5.2-0.4,11-0.4,17.5
				C305.9,713.6,306,720.1,306.3,726.2z"/>
			<path fill="#FFFFFF" d="M340.5,689.3l-0.1,4c-3.7-0.2-7.6-0.3-11.6-0.3c0,3.6-0.1,8.2-0.1,13.8c0,6.2,0.1,12.6,0.3,19.4h-5.2
				c0.2-6.4,0.3-12.9,0.3-19.4c0-5.5-0.1-10.1-0.2-13.8c-2.8,0-6.7,0.1-11.8,0.3l0.1-4.1H340.5z"/>
			<path fill="#FFFFFF" d="M375.4,726.2h-6c0-1.3-1.2-5.2-3.6-11.9h-16.3c-2.3,6.6-3.5,10.6-3.5,11.9h-5.7c0-0.7,2.4-6.7,7.3-18.1
				c4.9-11.4,7.3-17.6,7.3-18.8h6.6c0,1.1,2.3,7.3,7,18.5C373.1,719,375.4,725.1,375.4,726.2z M364.6,710.5
				c-4.4-11.1-6.7-17-6.7-17.7h-0.3c0,0.6-2.3,6.5-6.9,17.7H364.6z"/>
			<path fill="#FFFFFF" d="M403.5,722l-0.2,4.2h-22.3c0.2-4.7,0.3-11.1,0.3-19.4c0-7.1-0.1-12.9-0.3-17.5h5.3
				c-0.2,3.8-0.3,9.6-0.3,17.5c0,6.5-0.1,11.6-0.3,15.5C391.4,722.3,397.3,722.2,403.5,722z"/>
			<path fill="#FFFFFF" d="M450,726.2h-5.5c-1.8-5.4-3.1-9-4-10.8c-1.1-2.2-2.3-3.6-3.6-4.3c-1.1-0.5-3-0.8-5.7-0.8
				c-1.6,0-3,0-4.3,0.1c0,6.1,0.1,11.4,0.3,15.7h-5.3c0.3-5.9,0.4-12.3,0.4-19.4c0-6.6-0.1-12.5-0.4-17.5h4c0.9,0,1.9,0,3.2-0.1
				c1.3-0.1,2.8-0.1,4.5-0.1c8.3,0,12.4,2.9,12.4,8.6c0,4.7-2.3,8.1-7,10v0.3c2.1,0.6,3.8,2.1,5,4.3
				C445.3,714.2,447.2,718.8,450,726.2z M441.3,699.6c0-4.5-3-6.7-9.1-6.7c-2.2,0-4,0.1-5.5,0.4c0.1,3.3,0.2,7.8,0.2,13.4
				c1.1,0,2.2,0.1,3.3,0.1C437.6,706.7,441.3,704.3,441.3,699.6z"/>
			<path fill="#FFFFFF" d="M478.8,709.5c0,0.8,0,1.9-0.1,3.3l-19.5,0.3c0.2,2.8,1.3,5.1,3.2,6.9c1.9,1.9,4.5,2.8,7.7,2.8
				c2.9,0,5.6-0.3,8.1-1l-0.5,4c-1.9,0.7-4.5,1.1-8,1.1c-4.9,0-8.7-1.3-11.2-4c-2.6-2.7-3.9-5.9-3.9-9.8c0-4.1,1.2-7.7,3.5-10.6
				c2.4-3,5.5-4.5,9.5-4.5c3.6,0,6.4,1.1,8.3,3.2C477.9,703.4,478.8,706.2,478.8,709.5z M474.1,709.6c0-5.3-2.2-8-6.7-8
				c-4.5,0-7.2,2.8-8,8.3L474.1,709.6z"/>
			<path fill="#FFFFFF" d="M509.4,726.2h-5.2c0.4-5,0.6-10.4,0.6-16.3c0-2.9-0.6-4.9-1.8-6c-1.2-1.1-2.9-1.6-5.1-1.6
				c-2.7,0-5.2,1-7.4,2.9c0,6.4,0,13.4,0.1,20.9h-5.2c0.3-6.4,0.5-11.1,0.5-13.9c0-4.4-0.4-8.7-1.2-12.9l5-0.7l0.5,3.5h0.2
				c2.8-2.5,5.8-3.8,9-3.8c3.1,0,5.6,0.7,7.3,2.1c1.7,1.4,2.6,3.9,2.6,7.4c0,0.4,0,1.1-0.1,2.1c0,1.1-0.1,1.8-0.1,2.1
				C509.3,715.2,509.3,719.9,509.4,726.2z"/>
			<path fill="#FFFFFF" d="M538.1,726.2l-4.4,0.2c-0.2-0.9-0.3-1.8-0.3-2.6H533c-2.3,2.1-5.5,3.2-9.5,3.2c-2.2,0-4-0.6-5.6-1.9
				s-2.4-3.1-2.4-5.5c0-2.9,1.2-5.2,3.7-7c2.5-1.8,7-2.7,13.7-2.8c0.1-0.5,0.1-1,0.1-1.6c0-2.3-0.6-3.9-1.9-4.6
				c-1.2-0.8-3.1-1.2-5.6-1.2c-3,0-5.9,0.4-8.8,1.1l0.5-3.9c2.8-0.8,6.1-1.2,9.8-1.2c3.4,0,6,0.7,7.8,2.1s2.7,3.8,2.7,7.1
				c0,0.9,0,2.5-0.1,4.8c-0.1,2.3-0.1,3.9-0.1,4.7C537.3,720.4,537.5,723.5,538.1,726.2z M533,720.7c-0.1-2.9-0.1-5.4-0.1-7.7
				c-3.6,0-6.2,0.3-8.1,0.8c-3.1,0.9-4.6,2.7-4.6,5.4c0,2.6,1.8,3.9,5.4,3.9C528.7,723,531.2,722.2,533,720.7z"/>
			<path fill="#FFFFFF" d="M550.4,726.2h-5.1c0.3-3.8,0.4-8.1,0.4-12.9c0-5.5-0.3-10-1-13.7l5.7-0.8c-0.2,3.9-0.3,8.8-0.3,14.5
				C550,717.8,550.1,722.1,550.4,726.2z M551.6,690.8c0,1-0.3,1.8-0.9,2.5c-0.6,0.7-1.5,1.1-2.6,1.1c-1,0-1.7-0.3-2.3-0.9
				c-0.5-0.6-0.8-1.4-0.8-2.2c0-0.9,0.3-1.8,1-2.5c0.6-0.7,1.5-1,2.7-1c0.9,0,1.7,0.3,2.2,0.9C551.3,689.2,551.6,689.9,551.6,690.8z
				"/>
			<path fill="#FFFFFF" d="M575.9,718.5c0,5.5-3.5,8.3-10.6,8.3c-3.1,0-6-0.3-8.7-0.9l0.9-4.2c2.5,0.9,5.1,1.4,8,1.4
				c4.1,0,6.2-1.2,6.2-3.5c0-1.1-0.5-2-1.4-2.7c-0.9-0.7-2.4-1.4-4.5-2.3c-2.7-1.1-4.6-2.1-5.8-3.1c-1.8-1.5-2.7-3.2-2.7-5.3
				c0-2.2,0.8-4,2.4-5.5c1.6-1.5,4.1-2.3,7.4-2.3c3.2,0,5.9,0.3,7.8,0.8l-0.9,4.1c-2-0.8-4.4-1.2-7.1-1.2c-3.6,0-5.4,1-5.4,3.1
				c0,1.1,0.4,1.9,1.2,2.6c0.8,0.7,2.4,1.4,4.8,2.4c2.5,1,4.4,2,5.7,2.9C575,714.6,575.9,716.4,575.9,718.5z"/>
			<path fill="#FFFFFF" d="M600.2,718.5c0,5.5-3.5,8.3-10.6,8.3c-3.1,0-6-0.3-8.7-0.9l0.9-4.2c2.5,0.9,5.1,1.4,8,1.4
				c4.1,0,6.2-1.2,6.2-3.5c0-1.1-0.5-2-1.4-2.7c-0.9-0.7-2.4-1.4-4.5-2.3c-2.7-1.1-4.6-2.1-5.8-3.1c-1.8-1.5-2.7-3.2-2.7-5.3
				c0-2.2,0.8-4,2.4-5.5c1.6-1.5,4.1-2.3,7.4-2.3c3.2,0,5.9,0.3,7.8,0.8l-0.9,4.1c-2-0.8-4.4-1.2-7.1-1.2c-3.6,0-5.4,1-5.4,3.1
				c0,1.1,0.4,1.9,1.2,2.6c0.8,0.7,2.4,1.4,4.8,2.4c2.5,1,4.4,2,5.7,2.9C599.3,714.6,600.2,716.4,600.2,718.5z"/>
			<path fill="#FFFFFF" d="M627.8,726.2l-4.4,0.2c-0.2-0.9-0.3-1.8-0.3-2.6h-0.3c-2.3,2.1-5.5,3.2-9.5,3.2c-2.2,0-4-0.6-5.6-1.9
				s-2.4-3.1-2.4-5.5c0-2.9,1.2-5.2,3.7-7c2.5-1.8,7-2.7,13.7-2.8c0.1-0.5,0.1-1,0.1-1.6c0-2.3-0.6-3.9-1.9-4.6
				c-1.2-0.8-3.1-1.2-5.6-1.2c-3,0-5.9,0.4-8.8,1.1l0.5-3.9c2.8-0.8,6.1-1.2,9.8-1.2c3.4,0,6,0.7,7.8,2.1s2.7,3.8,2.7,7.1
				c0,0.9,0,2.5-0.1,4.8c-0.1,2.3-0.1,3.9-0.1,4.7C627,720.4,627.3,723.5,627.8,726.2z M622.8,720.7c-0.1-2.9-0.1-5.4-0.1-7.7
				c-3.6,0-6.2,0.3-8.1,0.8c-3.1,0.9-4.6,2.7-4.6,5.4c0,2.6,1.8,3.9,5.4,3.9C618.4,723,620.9,722.2,622.8,720.7z"/>
			<path fill="#FFFFFF" d="M659,726.2h-5.2c0.4-5,0.6-10.4,0.6-16.3c0-2.9-0.6-4.9-1.8-6c-1.2-1.1-2.9-1.6-5.1-1.6
				c-2.7,0-5.2,1-7.4,2.9c0,6.4,0,13.4,0.1,20.9h-5.2c0.3-6.4,0.5-11.1,0.5-13.9c0-4.4-0.4-8.7-1.2-12.9l5-0.7l0.5,3.5h0.2
				c2.8-2.5,5.8-3.8,9-3.8c3.1,0,5.6,0.7,7.3,2.1c1.7,1.4,2.6,3.9,2.6,7.4c0,0.4,0,1.1-0.1,2.1c0,1.1-0.1,1.8-0.1,2.1
				C658.8,715.2,658.9,719.9,659,726.2z"/>
			<path fill="#FFFFFF" d="M687,721.8l-0.3,3.8c-1.5,0.9-3.6,1.3-6.1,1.3c-4.9,0-8.6-1.3-11.2-4s-3.9-6-3.9-9.8
				c0-4,1.4-7.5,4.1-10.4c2.7-2.9,6.3-4.4,10.8-4.4c2.2,0,4.1,0.2,5.5,0.7l-0.8,4.4c-2-0.7-4-1.1-6-1.1c-2.7,0-4.8,0.9-6.4,2.8
				c-1.6,1.9-2.4,4.2-2.4,7c0,3.1,0.9,5.6,2.8,7.6c1.9,2,4.6,3.1,8,3.1C682.5,722.9,684.5,722.5,687,721.8z"/>
			<path fill="#FFFFFF" d="M715.8,709.5c0,0.8,0,1.9-0.1,3.3l-19.5,0.3c0.2,2.8,1.3,5.1,3.2,6.9c1.9,1.9,4.5,2.8,7.7,2.8
				c2.9,0,5.6-0.3,8.1-1l-0.5,4c-1.9,0.7-4.5,1.1-8,1.1c-4.9,0-8.7-1.3-11.2-4c-2.6-2.7-3.9-5.9-3.9-9.8c0-4.1,1.2-7.7,3.5-10.6
				c2.4-3,5.5-4.5,9.5-4.5c3.6,0,6.4,1.1,8.3,3.2C714.9,703.4,715.8,706.2,715.8,709.5z M711.1,709.6c0-5.3-2.2-8-6.7-8
				c-4.5,0-7.2,2.8-8,8.3L711.1,709.6z"/>
		</g>
	</g>
	<g>
		<path fill="#2E3192" d="M354,337.6c-0.7,0-1.3-0.2-1.9-0.5v2.8c0,0.5-0.1,1-0.4,1.4c0.7-0.6,1.6-1,2.6-1h5.3c1,0,1.9,0.4,2.6,1
			v-3.9c0-0.3,0.1-0.5,0.2-0.8c-0.7,0.5-1.6,0.9-2.5,0.9H354z M354,337.6"/>
		<path fill="#2E3192" d="M364.3,327.8v5.4c0,0.1-0.1,0.2-0.1,0.3c0.6-0.5,1.3-0.8,2-1v-2.8C365.4,329.3,364.7,328.7,364.3,327.8
			L364.3,327.8z M364.3,327.8"/>
		<path fill="#2E3192" d="M363.8,349.5v0.3c0,2.3-1.9,4.1-4.2,4.1h-5.3c-2.3,0-4.2-1.9-4.2-4.1v-5.3c0-0.8,0.3-1.4,0.6-2
			c-0.5,0.4-1.2,0.7-1.9,0.7h-3.2c-1.8,0-3.3-1.5-3.3-3.3v-3.1c0-1.8,1.5-3.3,3.3-3.3h3.2c0.3,0,0.6,0.1,0.9,0.2
			c0-0.2-0.1-0.3-0.1-0.5v-5.9c0-1.2,0.5-2.3,1.3-3.1h-0.3c-1.8,0-3.3-1.5-3.3-3.3v-3.2c0-1.8,1.5-3.3,3.3-3.3h3.1
			c1.8,0,3.3,1.5,3.3,3.3v3.2c0,0.8-0.3,1.4-0.7,2h3.6c2,0,3.6,1.3,4.1,3.1v-2.6c0-1.4,0.9-2.6,2.2-3.1v-3.2c0-3.4-2.8-6.1-6.1-6.1
			h-28.6c-3.4,0-6.1,2.8-6.1,6.1v49.1c0,3.4,2.8,6.1,6.1,6.1h28.6c3.4,0,6.1-2.8,6.1-6.1v-15.4C365.4,350.6,364.5,350.2,363.8,349.5
			L363.8,349.5z M340.7,329.6v-2.6c0-1.7,1.4-3.1,3-3.1h2.6c1.7,0,3,1.4,3,3.1v2.6c0,1.7-1.4,3-3,3h-2.6
			C342,332.7,340.7,331.3,340.7,329.6L340.7,329.6z M340.7,329.6"/>
		<path fill="#2E3192" d="M364.3,345.8c0,1.8,1.5,3.3,3.3,3.3h8.3c1.8,0,3.3-1.5,3.3-3.3v-8.3c0-1.8-1.5-3.3-3.3-3.3h-8.3
			c-1.8,0-3.3,1.5-3.3,3.3V345.8z M364.3,345.8"/>
		<path fill="#2E3192" d="M344.5,339.9c0,0.7,0.6,1.2,1.2,1.2h3.2c0.7,0,1.2-0.6,1.2-1.2v-3.1c0-0.7-0.6-1.2-1.2-1.2h-3.2
			c-0.7,0-1.2,0.6-1.2,1.2V339.9z M344.5,339.9"/>
		<path fill="#2E3192" d="M342.7,329.6c0,0.6,0.5,1,1,1h2.6c0.6,0,1-0.5,1-1v-2.6c0-0.6-0.5-1-1-1h-2.6c-0.6,0-1,0.5-1,1V329.6z
			 M342.7,329.6"/>
		<path fill="#2E3192" d="M383.8,339.1c0,0.6,0.5,1,1,1h2.6c0.6,0,1-0.5,1-1v-2.6c0-0.6-0.5-1-1-1h-2.6c-0.6,0-1,0.5-1,1V339.1z
			 M383.8,339.1"/>
		<path fill="#2E3192" d="M374.6,319.7c0,0.4,0.4,0.8,0.8,0.8h2c0.4,0,0.8-0.4,0.8-0.8v-2c0-0.4-0.4-0.8-0.8-0.8h-2
			c-0.4,0-0.8,0.4-0.8,0.8V319.7z M374.6,319.7"/>
		<path fill="#2E3192" d="M366.1,326.5c0,0.7,0.6,1.2,1.2,1.2h3.2c0.7,0,1.2-0.6,1.2-1.2v-3.1c0-0.7-0.6-1.2-1.2-1.2h-3.2
			c-0.7,0-1.2,0.6-1.2,1.2V326.5z M366.1,326.5"/>
		<path fill="#2E3192" d="M349.4,320.9c0,0.7,0.6,1.2,1.2,1.2h3.1c0.7,0,1.2-0.5,1.2-1.2v-3.2c0-0.7-0.6-1.2-1.2-1.2h-3.1
			c-0.7,0-1.2,0.5-1.2,1.2V320.9z M349.4,320.9"/>
		<path fill="#2E3192" d="M377.6,329.6c0,1.2,0.9,2.1,2.1,2.1h5.3c1.2,0,2.1-0.9,2.1-2.1v-5.3c0-1.1-0.9-2.1-2.1-2.1h-5.3
			c-1.2,0-2.1,1-2.1,2.1V329.6z M377.6,329.6"/>
		<path fill="#2E3192" d="M352.2,349.9c0,1.2,0.9,2.1,2.1,2.1h5.3c1.2,0,2.1-0.9,2.1-2.1v-5.3c0-1.2-0.9-2.1-2.1-2.1h-5.3
			c-1.2,0-2.1,1-2.1,2.1V349.9z M352.2,349.9"/>
		<path fill="#2E3192" d="M351.7,333.2c0,1.3,1,2.3,2.3,2.3h5.9c1.3,0,2.3-1,2.3-2.3v-5.9c0-1.3-1.1-2.3-2.3-2.3H354
			c-1.3,0-2.3,1-2.3,2.3V333.2z M351.7,333.2"/>
	</g>
	<g>
		<path fill="#D4145A" d="M424.6,351L424.6,351v-0.8v-1.4l-0.7-1l0.3-1.9l-0.5-0.1v-4.2c0,0-1.4-1.1-1.5-1.1c-0.1,0-0.7-0.2-0.7-0.2
			l-0.1-0.8l-1.8-2.3l0.2-0.8l0.1-1.4l1.3-0.9l-0.2-1.5l-1.9-0.1l-1.5-1.7l-1-0.3l-0.7-0.1l0.1-0.6l-0.8-0.1v0.3l-2.1-0.5l-0.8-1.3
			l0.3-0.6l-1.3-2l-0.2-1.4h-0.5l0.2,1.4l0.9,1.4l-0.1,0.6l-0.8-0.1l-1-1.7V324l-1-0.5v-1.4c-1.2,2.9-1.9,6.1-1.9,9.5
			c0,11.2,7.7,20.7,18,23.5V351z M424.6,351"/>
		<path fill="#D4145A" d="M416.3,329.1l1.9-1.2l0.2,0.6l-0.6,1.1l1.4,0.2l0.1,2.2l1.9,0.3l1.2-1.4l1.5,0.3l0.5,0.7h0.1v-5.6h14.4
			l1.3-0.9V324l1.3-0.7l0.5,0h1.1l0.8-0.5l2.7-0.2v1.4l2.2,0.5l0.4,0.3h0.4v-0.8l1.2-0.1l1.2,0.9h1.9l0.1-0.1
			c-0.2-0.7-0.4-1.3-0.7-1.9l-1.3,0l-0.6-0.7l-0.1-1.1l-0.7,0.4l-0.3,1.4l-0.9-1l0-0.9l-0.9-0.8l-0.3-0.3h-1.1l0.3,0.9l1.3,0.7
			l0.2,0.2l-0.3,0.1l0,0.7l-0.6,0.3l-0.5-0.1l-0.3-0.5l0.9,0l0.2-0.3l-1.9-1.3l-0.1-0.5l-0.8,0.7l-0.8-0.2l-1.2,1.5l-0.2,0.6
			l-0.8,0.1l-1.1,0l-0.7-0.3l-0.2-1.3l0.2-0.6l1.1-0.3l1.3,0.3l0.2-0.7l-0.5-0.1l0.2-1.1l1.3-0.2l0.9-1.2l0.9-0.1l0.8,0.1h0.3
			L447,316l-1,0.4l-0.4-0.9l-0.6-0.1l-0.1-0.6l0.5-0.5l1.1-0.4l0.3-0.5c-4.3-3.8-9.9-6.1-16-6.1c-5.3,0-10.3,1.7-14.3,4.7l1.2,0
			l0.5,0.3l1,0.2l0.1,0.4l1.6,0.1l-0.2-0.5l-1.5,0l0.3-0.3l-0.1-0.4h-1.3l1.4-1.1h1.4l0.6,0.9l1.1,0.1l0.6-0.6l0.5,0.2l-0.9,0.9
			c0,0-1.2,0-1.2,0c0.1,0,0.1,0.8,0.1,0.8l1.5,0l0.2-0.4l1-0.1l0.1-0.6l-0.6-0.1l0.2-0.5l0.5-0.1l1.6,0.1l-0.9,0.8l0.1,0.6l0.9,0.1
			l-0.1-1.1l0.9-0.5l1.6-0.2l2.3,1v0.9l0.7,0.2l-0.4,0.7h-1l-0.3,0.8l-2.4-0.6l1.9-1l-0.7-0.6l-1.6,0.2l-0.1,0.1h0l0,0l-0.5,0.5
			l-0.8,0.1l0.1,0.4l0.3,0.1l0,0.1l-0.6,0.1l0,0.4l-0.6,0l-0.1-0.7l-1.1,0.3l-2.2,1.3l0.2,0.9l0.6,0.4l1.2,0.2v1.4l0.6-0.1l0.5-1.1
			l1.3-0.4v-1.7l0.7-0.5l1.7,0.4l-0.1,1.1h0.5l1.3-0.6l0.1,1.4l0.9,0.6l0,0.9l-0.9,0.3l0.1,0.3l1.1,0.5l0,0.6l-0.3,0c0,0,0,0,0,0
			l-1.4-0.4l-0.1-0.4l0.4-0.3v-0.4l-0.4-0.1l-0.1,0.4l-0.7,0.1l-0.1,0v0l-0.3,0l-0.2-0.4l-0.2-0.1h-0.5l-0.2,0.2v0.4l0.5,0.1
			l0.4,0.1l-0.1,0l-0.4,0.5l-0.2-0.2l-0.4-0.1l-1.1,1l0.1,0.1l-1.6,0.9l-1.5,1.6l-0.1,0.7l-1.5,1l-0.7,0.7l0.1,1.5l-1-0.5l0-0.9
			h-2.9l-1.5,0.8l-0.6,1.2l-0.3,0.9l0.4,0.9L416.3,329.1z M442,316l0.2-0.3l0.8-0.2l0.2,1l0.4,0.7l0.3,0.3l0.5,0.2l-0.5,0.6
			l-0.9,0.1h-0.7l0.1-0.8l0.6-0.1L443,317l-0.5-0.3l-0.4-0.3V316z M440.7,317.5l0.5-0.8l0.7-0.1l0.5,0.2l0,0.5l-1,0.7h-0.6V317.5z
			 M428,319.9h0.7l0.1-0.4l0.3,0l0.3,0.1l-0.1,0.3l-0.3,0l-0.1,0.3l-0.3,0.2l-0.4,0c0-0.1,0-0.2,0-0.2H428V319.9z M427,320.2
			l0.2-0.3l0.3,0.2l-0.1,0.4l-0.5,0L427,320.2z M427,320.2"/>
		<path fill="#D4145A" d="M426.2,358.5h46v-30.3h-46V358.5z M430.9,332.9h36.6v21h-36.6V332.9z M430.9,332.9"/>
		<path fill="#D4145A" d="M449.9,360h-23.6l-6.3,8.4h58.5l-6.3-8.4H449.9z M426.7,366.8l4-5.3h37.1l3.4,5.3H426.7z M426.7,366.8"/>
		<path fill="#D4145A" d="M455.6,368.9v1H443v-1h-23.4v2h59.2v-2H455.6z M455.6,368.9"/>
	</g>
	<g>
		<path fill="#93278F" d="M505.7,336.3c0.2,0,0.4,0,1-0.4c0.3-0.2,0.6-0.5,1-1l0.2-0.2c1.3-1.8,4.4-5.9,8.9-5.7
			c3.7,0.3,6.3,3.1,7.6,8.1c0,0.2,0.1,0.3,0.1,0.4c0,0.1,0,0.2,0.1,0.3h1.4c-0.1-0.2-0.1-0.4-0.2-0.7c0,0,0-0.1,0-0.1
			c0,0,0-0.1-0.1-0.2c-0.2-0.8-0.7-2.9-2-4.9c-1.7-2.6-3.9-4-6.7-4.2c0,0,0,0,0,0c-5.2-0.3-8.6,4.3-10,6.2l-0.2,0.2
			c-0.4,0.5-0.9,0.9-1,0.9c-0.1,0-0.1,0.1-0.2,0.1c-0.2,0.2-0.3,0.4-0.2,0.7C505.3,336,505.5,336.2,505.7,336.3L505.7,336.3z
			 M505.7,336.3"/>
		<path fill="#93278F" d="M512.7,345.4c-1.8,1.1-4.1,2.4-5.9,3.2c-0.3,0.1-0.5,0.5-0.3,0.9c0.1,0.2,0.3,0.4,0.6,0.4
			c0.1,0,0.2,0,0.3-0.1c2.6-1.1,6-3.2,7.8-4.4H512.7z M512.7,345.4"/>
		<path fill="#93278F" d="M522.4,337.7c0.2-0.9,0.1-1.7-0.3-2.4c-0.4-0.9-1.2-1.5-2.3-1.8c-1.6-0.5-3.4,0.4-5.2,2.4
			c0,0-0.8,0.9-2,1.9h1.9c0.6-0.6,1-1,1.1-1c1.1-1.2,2.6-2.4,3.8-2c0.7,0.2,1.2,0.6,1.5,1.2c0.2,0.5,0.3,1.2,0.1,1.9H522.4z
			 M522.4,337.7"/>
		<path fill="#93278F" d="M513.8,333.6c0,0,0.1-0.1,0.2-0.1c0,0,0.1-0.1,0.1-0.1c0.5-0.3,0.9-0.7,1.4-0.9c0.5-0.2,1-0.4,1.5-0.5
			c0.2,0,0.2,0,0.4-0.1c0.4,0,0.7-0.3,0.7-0.7c0-0.3-0.3-0.7-0.7-0.6c-2.4,0.2-4.4,1.7-5.9,3.4c-0.3,0.3-0.6,0.7-0.8,1
			c-0.4,0.4-0.8,0.8-1.2,1.2c-0.4,0.4-0.8,0.7-1.3,1c-0.4,0.2-0.7,0.4-1.1,0.6h2.5c0.9-0.7,1.7-1.5,2.4-2.4c0.3-0.4,0.6-0.7,0.9-1
			c0.2-0.2,0.4-0.4,0.6-0.5C513.6,333.7,513.7,333.6,513.8,333.6L513.8,333.6z M513.8,333.6"/>
		<path fill="#93278F" d="M506.5,346.4c0.4-0.1,1.3-0.5,2.5-1h-3.2c-0.1,0.2-0.2,0.4-0.1,0.6c0.1,0.3,0.3,0.4,0.6,0.4
			C506.3,346.5,506.4,346.4,506.5,346.4L506.5,346.4z M506.5,346.4"/>
		<path fill="#93278F" d="M518.2,336.7c-0.2,0.3-0.5,0.7-0.8,1h1.7c0.1-0.1,0.1-0.2,0.2-0.2c0.2-0.3,0.1-0.7-0.2-0.9
			C518.8,336.4,518.4,336.4,518.2,336.7L518.2,336.7z M518.2,336.7"/>
		<path fill="#93278F" d="M524.2,350.3c-0.9-0.3-2-1.1-3.1-1.8c-1.5-1.1-2.9-2.1-4-1.9c-0.8,0.1-2.3,1.1-4.5,2.5
			c-1.6,1.1-3.5,2.3-4.3,2.5c-0.3,0.1-0.6,0.4-0.5,0.8c0.1,0.3,0.3,0.5,0.6,0.5c0.1,0,0.1,0,0.2,0c1-0.3,2.8-1.4,4.7-2.7
			c1.5-1,3.4-2.2,4-2.3c0.6-0.1,1.9,0.9,3,1.6c1.1,0.8,2.3,1.7,3.4,2c0.3,0.1,0.7-0.1,0.8-0.4C524.8,350.8,524.6,350.4,524.2,350.3
			L524.2,350.3z M524.2,350.3"/>
		<path fill="#93278F" d="M522.6,353.5c-0.5-0.2-1.4-0.7-2.2-1.2c-1.7-1.1-2.9-1.7-3.6-1.6c-0.8,0.1-2.5,1.3-5.3,3.4
			c-0.3,0.3-0.6,0.5-0.9,0.6c-0.3,0.2-0.4,0.6-0.2,0.9c0.1,0.2,0.3,0.3,0.5,0.3c0.1,0,0.3,0,0.4-0.1c0.2-0.2,0.5-0.4,0.9-0.6
			c1.1-0.8,4.1-3,4.8-3.1c0.4,0,1.9,0.9,2.8,1.4c0.9,0.6,1.8,1.1,2.5,1.3c0.3,0.1,0.7-0.1,0.8-0.4
			C523.1,354,522.9,353.6,522.6,353.5L522.6,353.5z M522.6,353.5"/>
		<path fill="#93278F" d="M520.4,356.7c-0.4-0.2-0.7-0.5-1-0.7c-1.1-0.8-2-1.4-3-1.2c-1.1,0.2-3,2-3.3,2.4c-0.2,0.3-0.2,0.7,0,0.9
			c0.1,0.1,0.3,0.2,0.5,0.2c0.2,0,0.3-0.1,0.5-0.2c0.9-0.9,2.1-1.9,2.6-2c0.5-0.1,1.2,0.4,2,1c0.3,0.2,0.7,0.5,1.1,0.7
			c0.3,0.2,0.7,0.1,0.9-0.2C520.8,357.3,520.7,356.9,520.4,356.7L520.4,356.7z M520.4,356.7"/>
		<path fill="#93278F" d="M524.9,346.7c-0.5-0.2-0.9-0.3-1.4-0.6c-0.3-0.2-0.6-0.4-0.9-0.6h-1.8c0.9,1.2,2.3,2.1,3.7,2.5
			C525.3,348.2,525.7,346.9,524.9,346.7L524.9,346.7z M524.9,346.7"/>
		<path fill="#93278F" d="M527.5,338.1h-24v6.3h24V338.1z M526.5,343.4h-21.9v-4.2h21.9V343.4z M526.5,343.4"/>
		<path fill="#93278F" d="M507.8,342.3l0.7,0.4l0.4-0.9l0.4,0.9l0.7-0.4l-0.6-0.7l0.9,0.1v-0.8l-0.9,0.1l0.6-0.8l-0.7-0.4l-0.4,0.9
			l-0.4-0.8l-0.7,0.4l0.6,0.7l-0.9-0.1v0.8l0.9-0.1L507.8,342.3z M507.8,342.3"/>
		<path fill="#93278F" d="M512.2,342.3l0.7,0.4l0.4-0.9l0.4,0.9l0.7-0.4l-0.6-0.7l0.9,0.1v-0.8l-0.9,0.1l0.6-0.8l-0.7-0.4l-0.4,0.9
			l-0.4-0.8l-0.7,0.4l0.6,0.7l-0.9-0.1v0.8l0.9-0.1L512.2,342.3z M512.2,342.3"/>
		<path fill="#93278F" d="M516.7,342.3l0.7,0.4l0.4-0.9l0.4,0.9l0.7-0.4l-0.6-0.7l0.9,0.1v-0.8l-0.9,0.1l0.6-0.8l-0.7-0.4l-0.4,0.9
			l-0.4-0.8l-0.7,0.4l0.6,0.7l-0.9-0.1v0.8l0.9-0.1L516.7,342.3z M516.7,342.3"/>
		<path fill="#93278F" d="M521.1,342.3l0.7,0.4l0.4-0.9l0.4,0.9l0.7-0.4l-0.6-0.7l0.9,0.1v-0.8l-0.9,0.1l0.6-0.8l-0.7-0.4l-0.4,0.9
			l-0.4-0.8l-0.7,0.4l0.6,0.7l-0.9-0.1v0.8l0.9-0.1L521.1,342.3z M521.1,342.3"/>
		<path fill="#93278F" d="M530,311.8h-29.4c-2,0-3.5,1.5-3.5,3.4v57c0,1.9,1.6,3.4,3.5,3.4H530c2,0,3.5-1.5,3.5-3.4v-57
			C533.5,313.4,532,311.8,530,311.8L530,311.8z M515.3,372c-1.1,0-2-0.9-2-2c0-1.1,0.9-2,2-2c1.1,0,2,0.9,2,2
			C517.3,371.2,516.4,372,515.3,372L515.3,372z M531.1,364.6h-31.7V322h31.7V364.6z M531.1,364.6"/>
	</g>
	<g>
		<path fill="#1B1464" d="M619.5,334.6c0,0-0.1-0.1-0.1-0.1c-9.4-11.5-22-17.9-35.3-17.9c-13.3,0-25.9,6.4-35.3,17.9
			c-0.1,0.2-0.2,0.4-0.2,0.7c0,0.3,0.1,0.5,0.2,0.7l5.2,6.3c0.1,0.2,0.3,0.3,0.6,0.3c0.2,0,0.4-0.1,0.6-0.3
			c7.8-9.5,18.1-14.8,29-14.8c11,0,21.3,5.2,29,14.8c0.1,0.2,0.3,0.3,0.6,0.3c0.2,0,0.4-0.1,0.6-0.3l5.2-6.3
			c0.1-0.2,0.2-0.4,0.2-0.7C619.7,334.9,619.6,334.7,619.5,334.6L619.5,334.6z M619.5,334.6"/>
		<path fill="#1B1464" d="M584.1,333.2c-9.7,0-18.8,4.6-25.6,13c-0.3,0.4-0.3,1,0,1.3l5.1,6.3c0.1,0.2,0.3,0.3,0.6,0.3
			c0.2,0,0.4-0.1,0.6-0.3c5.2-6.4,12.1-9.9,19.4-9.9c7.3,0,14.2,3.5,19.4,9.9c0.1,0.2,0.3,0.3,0.6,0.3c0.2,0,0.4-0.1,0.6-0.3
			l5.1-6.3c0.1-0.2,0.2-0.4,0.2-0.7c0-0.3-0.1-0.5-0.2-0.7C602.9,337.9,593.8,333.2,584.1,333.2L584.1,333.2z M584.1,333.2"/>
		<path fill="#1B1464" d="M584.1,349.9c-6,0-11.7,2.9-16,8.1c-0.1,0.2-0.2,0.4-0.2,0.7c0,0.3,0.1,0.5,0.2,0.7l5.1,6.3
			c0.1,0.2,0.3,0.3,0.6,0.3c0.2,0,0.4-0.1,0.6-0.3c2.6-3.2,6.1-5,9.7-5c3.7,0,7.1,1.8,9.7,5c0.1,0.2,0.3,0.3,0.6,0.3
			c0.2,0,0.4-0.1,0.6-0.3l5.1-6.3c0.3-0.4,0.3-1,0-1.3C595.8,352.8,590.2,349.9,584.1,349.9L584.1,349.9z M584.1,349.9"/>
		<path fill="#1B1464" d="M584.1,367.7c-2.1,0-4.1,1-5.6,2.8c-0.3,0.4-0.3,1,0,1.4l5,6.2c0.1,0.2,0.3,0.3,0.6,0.3
			c0.2,0,0.4-0.1,0.6-0.3l5-6.2c0.3-0.4,0.3-1,0-1.4C588.2,368.7,586.2,367.7,584.1,367.7L584.1,367.7z M584.1,367.7"/>
	</g>
</g>
</svg>
